<svg width="247" height="200" viewBox="0 0 247 200" fill="none" xmlns="http://www.w3.org/2000/svg">
<g clip-path="url(#clip0_7_90)">
<path d="M97.5624 147.616C97.553 147.479 97.5265 147.344 97.4834 147.214C97.4738 147.082 97.4483 146.953 97.4076 146.827C92.1376 135.497 83.724 125.919 73.1677 119.232L72.195 118.62C71.9595 118.466 71.6883 118.376 71.4076 118.357C67.7747 118.148 64.1363 118.661 60.7025 119.865C57.2687 121.07 54.1074 122.943 51.401 125.375C46.1776 130.161 42.9635 136.75 42.4068 143.812C41.8502 150.875 43.9925 157.886 48.4016 163.431C51.9153 167.772 56.6603 170.949 62.013 172.544C67.3656 174.138 73.0755 174.076 78.3922 172.366C83.7089 170.655 88.3838 167.376 91.8023 162.959C95.2209 158.543 97.2233 153.195 97.5463 147.619L97.5624 147.616ZM67.9616 170.327C64.6671 170.071 61.4595 169.145 58.5355 167.606C55.6116 166.067 53.0328 163.946 50.9574 161.375C48.4929 158.33 46.8154 154.726 46.0729 150.881C45.2415 146.71 45.5007 142.395 46.8254 138.354C48.1502 134.313 50.4956 130.682 53.6347 127.813C58.3331 123.587 64.4962 121.364 70.8101 121.617L71.4201 121.999C81.3227 128.276 89.2425 137.233 94.2604 147.829C94.0206 151.037 93.1489 154.166 91.6954 157.035C90.2418 159.904 88.2352 162.458 85.791 164.549C83.3468 166.64 80.5132 168.227 77.4533 169.218C74.3935 170.21 71.1677 170.587 67.9616 170.327Z" fill="black"/>
<path d="M67.7352 131.934C68.1621 131.851 68.5384 131.601 68.781 131.239C69.0237 130.878 69.113 130.436 69.0292 130.009C68.9454 129.582 68.6955 129.205 68.3343 128.963C67.9732 128.72 67.5304 128.631 67.1034 128.714C57.6548 131.003 51.6526 142.847 51.3998 143.348C51.3027 143.543 51.2451 143.754 51.2303 143.971C51.2155 144.187 51.2439 144.405 51.3138 144.61C51.3837 144.816 51.4937 145.006 51.6374 145.168C51.7811 145.331 51.9557 145.464 52.1511 145.558C52.5413 145.75 52.9914 145.778 53.4027 145.638C53.814 145.498 54.1529 145.2 54.3449 144.81C54.2486 144.746 59.7679 133.849 67.7352 131.934Z" fill="black"/>
<path d="M98.7791 90.2485C96.7278 92.091 95.4892 94.6704 95.3339 97.4233C95.1785 100.176 96.1191 102.879 97.95 104.94L114.645 123.65C115.557 124.672 116.662 125.504 117.896 126.098C119.13 126.693 120.469 127.038 121.836 127.115C123.204 127.191 124.573 126.997 125.866 126.544C127.158 126.09 128.349 125.387 129.369 124.473L145.135 110.412C147.194 108.571 148.438 105.987 148.593 103.229C148.748 100.471 147.801 97.7642 145.961 95.7041L129.266 76.9942C127.431 74.9364 124.854 73.6911 122.102 73.532C119.349 73.3729 116.647 74.3131 114.587 76.1458L98.7791 90.2485ZM121.908 76.8161C122.844 76.8663 123.761 77.1026 124.604 77.5112C125.448 77.9198 126.202 78.4925 126.822 79.1957L143.514 97.8895C144.768 99.2979 145.412 101.146 145.305 103.029C145.198 104.912 144.349 106.675 142.943 107.933L137.055 113.201L127.259 102.216C126.971 101.9 126.571 101.709 126.145 101.683C125.718 101.658 125.299 101.8 124.975 102.079C124.653 102.362 124.454 102.761 124.423 103.189C124.391 103.617 124.529 104.041 124.806 104.369L134.605 115.37L129.001 120.382L112.322 101.669C112.032 101.344 111.625 101.148 111.191 101.124C110.757 101.099 110.33 101.248 110.006 101.538C109.681 101.828 109.485 102.235 109.461 102.669C109.436 103.103 109.585 103.53 109.875 103.854L126.477 122.432C125.066 123.456 123.327 123.923 121.592 123.745C119.858 123.568 118.25 122.757 117.076 121.468L100.381 102.758C99.7478 102.057 99.2598 101.239 98.9448 100.349C98.6298 99.459 98.494 98.5156 98.5453 97.573C98.5966 96.6304 98.834 95.7073 99.2437 94.8569C99.6534 94.0065 100.227 93.2456 100.933 92.6181L116.744 78.5315C117.447 77.9164 118.266 77.4478 119.153 77.1532C120.039 76.8587 120.976 76.7441 121.908 76.8161Z" fill="black"/>
<path d="M90.7432 111.838C90.6053 112.004 90.5016 112.196 90.438 112.402C90.3744 112.609 90.3522 112.826 90.3726 113.041C90.393 113.256 90.4557 113.465 90.5571 113.655C90.6584 113.846 90.7964 114.015 90.9632 114.152C101.973 123.227 105.186 131.341 105.218 131.418C105.338 131.838 105.62 132.193 106.002 132.405C106.384 132.617 106.834 132.669 107.254 132.548C107.674 132.428 108.029 132.146 108.241 131.765C108.453 131.383 108.504 130.933 108.384 130.513L108.334 130.255C108.258 129.869 104.898 121.266 93.0707 111.515C92.8977 111.381 92.6996 111.282 92.4881 111.226C92.2765 111.169 92.0557 111.156 91.8388 111.186C91.6219 111.216 91.4132 111.289 91.2251 111.401C91.0369 111.513 90.873 111.662 90.7432 111.838Z" fill="black"/>
<path d="M117.694 91.4695C118.62 92.5015 119.917 93.1252 121.301 93.2044C122.686 93.2836 124.045 92.8119 125.083 91.8923C125.606 91.4271 126.029 90.8608 126.327 90.2276C126.626 89.5945 126.792 88.9075 126.818 88.2081C126.845 87.7661 126.814 87.3225 126.726 86.8885C126.545 85.9697 126.118 85.1174 125.49 84.4226C124.565 83.3885 123.271 82.7597 121.886 82.672C121.193 82.6384 120.501 82.7446 119.85 82.9843C119.199 83.2241 118.603 83.5924 118.097 84.0674C117.064 84.9966 116.442 86.2976 116.366 87.6851C116.29 89.0726 116.768 90.4335 117.694 91.4695ZM121.642 86.0302C121.9 86.0423 122.152 86.1066 122.384 86.2192C122.616 86.3317 122.823 86.4902 122.991 86.6851C123.336 87.0705 123.513 87.5768 123.485 88.0929C123.466 88.4803 123.333 88.8533 123.101 89.1644C122.87 89.4755 122.551 89.7106 122.185 89.8398C121.819 89.9689 121.424 89.9862 121.048 89.8895C120.672 89.7928 120.334 89.5864 120.076 89.2967C119.836 89.038 119.674 88.7159 119.61 88.3684C119.554 88.0753 119.565 87.7733 119.642 87.4851C119.72 87.1969 119.862 86.9301 120.057 86.7049C120.253 86.4797 120.498 86.3019 120.772 86.185C121.047 86.0681 121.344 86.0152 121.642 86.0302Z" fill="black"/>
<path d="M106.049 174.424C112.614 176.78 118.625 175.802 123.485 171.688L148.658 149.244C158.878 146.247 168.456 141.386 176.909 134.907C177.08 134.78 177.225 134.621 177.335 134.439L182.439 130.796C183.666 129.913 184.707 128.796 185.502 127.51C186.297 126.224 186.83 124.793 187.07 123.3C187.286 121.945 187.263 120.564 187.005 119.217C186.55 116.914 185.401 114.807 183.712 113.177C182.024 111.547 179.876 110.474 177.559 110.102C176.417 109.914 175.253 109.9 174.107 110.061L168.47 103.743L206.035 70.241C208.053 71.6328 210.48 72.3078 212.927 72.158C215.373 72.0083 217.699 71.0426 219.533 69.4152L220.966 68.1977C222.022 67.2365 222.878 66.0764 223.485 64.7839C224.092 63.4914 224.438 62.0919 224.504 60.6655C224.569 59.7425 224.511 58.815 224.33 57.9074C223.95 55.9935 223.064 54.2162 221.765 52.7596L207.102 36.3931C206.067 35.2708 204.635 34.5969 203.11 34.515C201.586 34.4331 200.09 34.9497 198.94 35.9546L193.788 40.5434L193.356 40.9794L164.577 66.6886C164.211 67.0171 163.783 67.2699 163.319 67.4328C162.854 67.5956 162.362 67.6652 161.871 67.6376C160.871 67.5766 159.935 67.1234 159.266 66.3764C158.612 65.6299 158.278 64.6554 158.337 63.6642C158.396 62.6731 158.843 61.7451 159.582 61.0815L188.15 35.4969C188.383 35.3176 188.615 35.1383 188.844 34.9428L193.993 30.338C194.751 29.6617 195.318 28.7991 195.639 27.8357C195.961 26.8723 196.025 25.8416 195.825 24.8459C195.64 23.849 195.204 22.9159 194.557 22.1353L179.967 5.80443C179.01 4.71831 177.848 3.83226 176.547 3.19731C175.246 2.56234 173.832 2.19101 172.387 2.10467C170.942 2.01835 169.494 2.21875 168.127 2.69433C166.759 3.1699 165.5 3.91125 164.42 4.87569L163.084 6.07417C161.251 7.70415 160.019 9.90161 159.583 12.315C159.147 14.7283 159.533 17.2182 160.68 19.3861L123.408 52.6803L118.297 46.9955C118.905 45.1216 119.031 43.1245 118.663 41.1891C118.26 39.0904 117.28 37.1455 115.833 35.5734C114.385 34.0012 112.528 32.864 110.47 32.2898C108.411 31.7156 106.233 31.7271 104.181 32.323C102.129 32.919 100.284 34.0757 98.853 35.663L93.4938 41.4962C85.5754 49.666 79.3558 59.325 75.1948 69.9143L64.4713 79.4248C64.1032 76.5994 63.1262 73.8876 61.6078 71.4767C61.0738 70.5449 60.4948 69.6386 59.9157 68.7324C58.4678 66.6671 57.2868 64.4271 56.4007 62.0656C55.3955 59.0135 55.4609 55.7099 56.5862 52.7C57.2314 51.1 58.0143 49.5591 58.9261 48.0946C60.5598 45.6381 61.6897 42.8819 62.2505 39.9856C62.4084 38.708 62.3631 37.4133 62.1165 36.1498C60.9193 30.0482 55.1235 25.0495 49.034 22.9004C47.9061 22.5198 46.733 22.1648 45.5599 21.8098C41.2402 20.5006 37.1552 19.2791 35.2626 15.9388C34.4306 14.2041 33.9217 12.3324 33.7609 10.4152C33.5808 9.49757 33.4844 8.5802 33.2239 7.67833C32.3616 3.28323 29.8111 0.339507 26.6536 -0.244746C26.2417 -0.286641 25.8292 -0.171241 25.4988 0.07833C25.1684 0.327886 24.9446 0.693149 24.8722 1.10084C24.7999 1.50853 24.8844 1.9285 25.1088 2.2765C25.3332 2.6245 25.6808 2.87478 26.082 2.97714C28.2653 3.368 29.5877 6.01766 30.0811 8.36184C30.2453 9.19901 30.3969 9.97177 30.577 10.8894C30.7744 13.2118 31.4115 15.4754 32.4542 17.5598C35.0118 22.0738 40.1383 23.5758 44.67 24.9437C45.7885 25.276 46.907 25.6083 47.9804 25.9661C54.0698 28.1152 59.8129 33.4419 58.9992 39.5201C58.4905 41.9859 57.5013 44.3274 56.0879 46.4111C55.088 48.0372 54.2261 49.7443 53.5113 51.5144C52.1461 55.2297 52.0667 59.2955 53.2857 63.0613C54.2534 65.6786 55.555 68.1599 57.1584 70.4437C57.7151 71.3209 58.2717 72.1981 58.7832 73.1009C60.9448 76.7897 61.6801 79.8554 61.0529 82.4529L51.5459 91.0059C40.9191 100.497 45.8708 111.079 48.1707 114.791C47.3544 115.402 46.5381 116.014 45.7699 116.699C38.5056 123.181 33.9816 132.185 33.1172 141.883C32.2528 151.58 35.113 161.242 41.1164 168.907C44.3352 172.941 48.3433 176.277 52.8954 178.71C57.4475 181.142 62.4481 182.621 67.5912 183.054C72.7343 183.488 77.9118 182.868 82.8071 181.232C87.7024 179.597 92.2125 176.98 96.0617 173.541C97.0689 172.624 98.0345 171.666 98.9423 170.669C101.126 172.243 103.518 173.507 106.049 174.424ZM163.607 120.029L173.623 133.245C166.501 138.499 158.591 142.591 150.187 145.366L148.184 138.737C148.058 138.33 147.778 137.988 147.404 137.784C147.03 137.58 146.592 137.529 146.181 137.642C140.658 139.055 135.023 139.988 129.34 140.428C129.106 140.443 128.879 140.508 128.673 140.617C128.467 140.727 128.286 140.879 128.143 141.064C128.005 141.25 127.907 141.463 127.856 141.689C127.805 141.915 127.803 142.149 127.849 142.376L129.163 149.073C125.278 149.211 121.388 149.086 117.52 148.699C118.514 145.244 122.142 135.956 136.178 133.018C145.494 131.073 159.328 122.674 163.607 120.029ZM132.484 148.873L131.439 143.544C136.177 143.092 140.879 142.309 145.508 141.202L147.027 146.304C142.273 147.624 137.403 148.485 132.484 148.873ZM176.968 113.395C178.036 113.566 179.06 113.946 179.981 114.515C180.902 115.083 181.701 115.828 182.332 116.706C182.967 117.581 183.423 118.573 183.673 119.625C183.923 120.676 183.963 121.767 183.79 122.834C183.617 123.901 183.235 124.924 182.666 125.843C182.096 126.762 181.351 127.559 180.473 128.189L176.211 131.266L166.3 118.163L170.856 114.878C172.602 113.582 174.791 113.032 176.942 113.35L176.968 113.395ZM170.599 111.184C170.012 111.467 169.451 111.801 168.922 112.181L162.899 116.423C162.76 116.532 162.639 116.663 162.541 116.811C155.732 121.159 148.568 124.925 141.126 128.068L165.943 105.945L170.599 111.184ZM204.648 38.5463L219.222 54.8804C220.568 56.4009 221.258 58.3916 221.142 60.4186C221.026 62.4456 220.114 64.3447 218.604 65.7019L217.171 66.9194C215.792 68.1435 214.015 68.8246 212.172 68.8356C210.328 68.8467 208.544 68.1869 207.151 66.9793L207.135 66.8988C207.135 66.8988 207.019 66.8212 206.962 66.7823C206.904 66.7435 206.599 66.4689 206.429 66.2849L195.262 53.7632C194.354 52.7472 193.735 51.5059 193.47 50.1691C193.345 49.5281 193.301 48.874 193.339 48.222C193.457 46.3037 194.299 44.5017 195.693 43.179L198.531 40.5993C198.586 40.5494 198.637 40.4947 198.683 40.4357L200.991 38.3109C201.245 38.0822 201.542 37.9065 201.864 37.7943C202.187 37.6821 202.529 37.6356 202.869 37.6575C203.21 37.6795 203.543 37.7694 203.849 37.9221C204.154 38.0747 204.426 38.2869 204.648 38.5463ZM154.943 63.3458C154.863 64.7359 155.196 66.1187 155.902 67.3192C156.607 68.5197 157.653 69.4839 158.907 70.0899C160.16 70.6959 161.566 70.9164 162.945 70.7236C164.324 70.5307 165.614 69.9331 166.654 69.0064L174.837 61.7164L184.889 72.9856C185.179 73.31 185.586 73.506 186.02 73.5306C186.455 73.5551 186.881 73.4061 187.205 73.1163C187.418 72.9267 187.577 72.685 187.668 72.4151C187.758 72.1453 187.777 71.8564 187.723 71.577C187.666 71.2881 187.532 71.0197 187.336 70.8002L177.284 59.531L190.093 48.1233C190.016 49.5436 190.219 50.9652 190.692 52.3069C191.165 53.6485 191.897 54.8838 192.847 55.9423L203.563 67.9508L134.121 129.944C134.058 130.013 134 130.086 133.946 130.162C127.267 131.614 121.38 135.526 117.455 141.122C115.981 143.292 114.893 145.7 114.237 148.24L113.118 148.075C111.378 147.825 109.721 147.171 108.279 146.166L102.893 136.522C98.4872 128.59 92.4648 121.672 85.2156 116.216L74.3123 108.023C73.954 106.148 73.7105 104.253 73.5833 102.348C76.1146 101.989 78.5666 101.202 80.8345 100.022C85.1155 97.8113 90.8856 93.1348 94.1356 83.3685L94.1883 83.0405C94.3194 82.9933 94.4415 82.9241 94.5494 82.8359L162.671 22.0382L173.39 34.0627C175.289 36.1757 177.942 37.4568 180.778 37.629L171.303 46.1756L161.379 35.0484C161.087 34.7417 160.688 34.5595 160.266 34.5398C159.843 34.5202 159.429 34.6646 159.11 34.9429C158.792 35.2213 158.593 35.612 158.555 36.0335C158.518 36.455 158.645 36.8747 158.909 37.2048L168.83 48.3159L162.813 53.693L157.702 48.0082C157.569 47.8211 157.398 47.664 157.201 47.5471C157.003 47.4302 156.783 47.3561 156.555 47.3295C156.327 47.3029 156.096 47.3244 155.877 47.3927C155.658 47.461 155.455 47.5746 155.283 47.726C155.11 47.8774 154.971 48.0634 154.875 48.2718C154.779 48.4803 154.728 48.7066 154.725 48.9362C154.721 49.1657 154.766 49.3933 154.857 49.6044C154.947 49.8155 155.081 50.0052 155.249 50.1614L160.36 55.8462L157.303 58.586C156.606 59.1994 156.04 59.947 155.638 60.7841C155.236 61.6213 155.007 62.5309 154.965 63.4585L154.943 63.3458ZM162.871 15.7293C162.62 14.4295 162.71 13.0869 163.131 11.832C163.553 10.5772 164.293 9.45314 165.279 8.56935L166.712 7.35192C168.23 6.00772 170.218 5.31867 172.243 5.43518C174.267 5.55168 176.163 6.46427 177.517 7.97377L192.007 24.3075C192.232 24.5576 192.405 24.8495 192.517 25.1666C192.629 25.4837 192.678 25.8197 192.66 26.1555C192.642 26.4913 192.558 26.8203 192.413 27.1236C192.268 27.4269 192.064 27.6987 191.814 27.9233L186.749 32.4448C186.683 32.4505 186.619 32.4632 186.556 32.4827L186.301 32.7167C184.775 33.9316 182.843 34.5177 180.9 34.3551C178.957 34.1925 177.149 33.2934 175.847 31.8419L164.66 19.3073C163.758 18.2936 163.141 17.059 162.871 15.7293ZM97.3676 75.8963C101.25 69.3945 105.555 63.1547 110.255 57.2172L115.875 51.0987C116.167 50.7755 116.441 50.4371 116.696 50.0849L120.978 54.8625L97.3676 75.8963ZM106.96 35.1424C108.595 35.045 110.223 35.4395 111.632 36.2751C113.041 37.1107 114.168 38.3492 114.867 39.831C115.566 41.3127 115.805 42.9699 115.554 44.5889C115.303 46.2079 114.573 47.7145 113.457 48.9148L108.935 53.8147L96.9942 42.4646L101.265 37.8147C101.988 37.0122 102.864 36.3624 103.843 35.9035C104.821 35.4445 105.88 35.1858 106.96 35.1424ZM94.7588 44.876L106.799 56.3069C103.696 60.2596 93.9832 73.1329 90.7684 82.0563C90.6715 82.3612 90.6658 82.6877 90.7521 82.9958C86.1971 95.9105 76.9338 98.5472 73.3765 99.078C73.2761 94.2571 73.658 89.4382 74.5166 84.6933L81.0246 86.7602C81.2313 86.8294 81.4497 86.8572 81.6673 86.842C81.8848 86.8268 82.0972 86.7689 82.2924 86.6716C82.4875 86.5743 82.6616 86.4396 82.8047 86.275C82.9478 86.1104 83.057 85.9193 83.1262 85.7125C83.1954 85.5057 83.2232 85.2873 83.208 85.0698C83.1928 84.8523 83.1349 84.6399 83.0377 84.4447C82.9404 84.2495 82.8056 84.0755 82.641 83.9324C82.4765 83.7893 82.2853 83.68 82.0785 83.6108L75.2394 81.4751L75.801 79.2249L78.9495 80.5299C79.3534 80.6894 79.8042 80.6823 80.2029 80.5101C80.6016 80.3378 80.9157 80.0145 81.0764 79.611C81.1929 79.319 81.2232 78.9997 81.1634 78.6911C81.1101 78.4218 80.9901 78.1702 80.8144 77.9593C80.6386 77.7484 80.4128 77.585 80.1575 77.484L76.5302 76.039C80.1809 64.4106 86.4123 53.7576 94.7588 44.876ZM53.7184 93.472L73.0805 76.1808C71.9807 79.9112 71.1686 83.7204 70.6514 87.5749C69.7514 94.1299 69.8116 100.781 70.8303 107.319C63.7812 107.272 56.8612 109.209 50.861 112.908C48.9413 109.941 44.8832 101.358 53.7184 93.472ZM67.9047 179.751C63.2033 179.374 58.6298 178.034 54.4691 175.813C50.3083 173.592 46.6495 170.537 43.7205 166.841C40.296 162.565 37.9634 157.519 36.9241 152.141C35.7302 146.165 36.1175 139.981 38.0478 134.2C39.9781 128.42 43.3843 123.244 47.9294 119.185C54.6109 113.285 63.3191 110.204 72.2244 110.589L83.2527 118.908C90.1337 124.099 95.8536 130.67 100.045 138.201L105.358 147.725C105.029 152.297 103.796 156.759 101.73 160.85C99.6637 164.942 96.8058 168.583 93.3219 171.562C89.838 174.541 85.7973 176.799 81.4343 178.205C77.0712 179.61 72.4725 180.136 67.9047 179.751ZM108.377 150.075C109.724 150.735 111.165 151.18 112.649 151.394C118.875 152.33 125.184 152.605 131.468 152.216C134.957 152.003 138.428 151.562 141.859 150.896L121.329 169.219C113.512 175.902 104.268 170.46 101.062 168.18C105.053 162.895 107.577 156.649 108.377 150.075Z" fill="black"/>
<path d="M136.994 -0.610679C136.941 -0.968987 136.771 -1.29954 136.51 -1.55077C136.249 -1.802 135.912 -1.95978 135.552 -1.9995C132.737 -2.29841 130.038 -3.27975 127.689 -4.85832C125.34 -6.4369 123.411 -8.565 122.071 -11.0579C121.898 -11.3763 121.625 -11.6285 121.294 -11.7752C120.962 -11.9219 120.592 -11.9549 120.24 -11.869C119.882 -11.8155 119.551 -11.645 119.3 -11.384C119.049 -11.123 118.891 -10.7862 118.851 -10.4261C118.547 -7.61327 117.563 -4.91654 115.985 -2.56818C114.407 -0.219815 112.282 1.70979 109.793 3.05449C109.471 3.22498 109.215 3.49779 109.065 3.8299C108.915 4.162 108.88 4.53451 108.966 4.88869C109.02 5.24886 109.194 5.58054 109.458 5.83143C109.722 6.08232 110.062 6.23815 110.425 6.27435C113.237 6.58145 115.932 7.56608 118.28 9.1438C120.628 10.7215 122.558 12.8452 123.905 15.3327C124.076 15.6547 124.348 15.9108 124.681 16.0605C125.013 16.2103 125.385 16.2453 125.739 16.1599C126.1 16.1051 126.431 15.932 126.682 15.6678C126.933 15.4037 127.089 15.0635 127.125 14.701C127.427 11.8873 128.409 9.18944 129.987 6.84065C131.566 4.49186 133.692 2.56284 136.183 1.22036C136.502 1.04753 136.754 0.774175 136.901 0.442948C137.047 0.111722 137.08 -0.25875 136.994 -0.610679ZM124.618 10.361C122.051 7.24607 118.631 4.94792 114.777 3.74838C117.892 1.17548 120.189 -2.25004 121.387 -6.10858C123.956 -2.98435 127.384 -0.680997 131.247 0.516992C128.123 3.0799 125.818 6.50231 124.618 10.361Z" fill="black"/>
<path d="M84.0214 -6.10029C83.6995 -5.92979 83.4434 -5.65698 83.2936 -5.32488C83.1439 -4.99277 83.1089 -4.62026 83.1942 -4.26609C83.2491 -3.90592 83.4222 -3.57424 83.6864 -3.32335C83.9505 -3.07246 84.2907 -2.91663 84.6532 -2.88043C86.213 -2.71411 87.7088 -2.16992 89.0108 -1.29501C90.3129 -0.420091 91.3819 0.759143 92.1253 2.14051C92.2981 2.45889 92.5715 2.71111 92.9027 2.85783C93.2339 3.00455 93.6044 3.03752 93.9563 2.95159C94.3146 2.89817 94.6452 2.72766 94.8964 2.46666C95.1477 2.20566 95.3054 1.86884 95.3452 1.50876C95.455 -0.0690501 95.9537 -1.59512 96.7968 -2.9333C97.6399 -4.27147 98.8012 -5.38012 100.177 -6.16032C100.499 -6.33081 100.755 -6.60362 100.905 -6.93573C101.055 -7.26783 101.089 -7.64034 101.004 -7.99452C100.949 -8.35469 100.776 -8.68636 100.512 -8.93726C100.248 -9.18815 99.9077 -9.34398 99.5452 -9.38018C98.015 -9.53356 96.5436 -10.0506 95.2537 -10.8881C93.9638 -11.7257 92.8929 -12.8595 92.1303 -14.195C91.9574 -14.5134 91.6841 -14.7656 91.3528 -14.9123C91.0216 -15.059 90.6512 -15.092 90.2992 -15.0061C89.9409 -14.9526 89.6104 -14.7821 89.3591 -14.5211C89.1079 -14.2601 88.9501 -13.9233 88.9104 -13.5632C88.7538 -12.0184 88.2279 -10.5338 87.377 -9.23491C86.5261 -7.93601 85.3752 -6.86089 84.0214 -6.10029ZM95.7034 -6.72043C94.4508 -5.52128 93.4482 -4.08579 92.7536 -2.4969C91.5367 -3.73841 90.0814 -4.72108 88.4751 -5.38581C89.7119 -6.60205 90.6892 -8.05644 91.3479 -9.66109C92.5894 -8.42795 94.0648 -7.45551 95.6876 -6.80093L95.7034 -6.72043Z" fill="black"/>
<path d="M224.421 137.874C224.729 137.707 224.976 137.447 225.126 137.13C225.275 136.814 225.319 136.457 225.252 136.114C225.184 135.77 225.009 135.457 224.751 135.221C224.493 134.984 224.166 134.836 223.818 134.799C222.355 134.642 220.952 134.131 219.73 133.311C218.509 132.49 217.506 131.384 216.808 130.088C216.637 129.766 216.365 129.51 216.032 129.36C215.7 129.211 215.328 129.176 214.974 129.261C214.614 129.316 214.282 129.489 214.031 129.753C213.78 130.017 213.624 130.357 213.588 130.72C213.434 132.184 212.925 133.588 212.104 134.81C211.283 136.032 210.175 137.034 208.878 137.73C208.57 137.896 208.323 138.157 208.173 138.473C208.024 138.79 207.979 139.146 208.047 139.49C208.114 139.833 208.29 140.146 208.548 140.383C208.806 140.619 209.133 140.767 209.481 140.805C210.945 140.959 212.349 141.468 213.571 142.289C214.793 143.11 215.795 144.218 216.491 145.515C216.661 145.837 216.934 146.093 217.266 146.243C217.598 146.393 217.971 146.428 218.325 146.342C218.685 146.288 219.017 146.114 219.268 145.85C219.519 145.586 219.675 145.246 219.711 144.884C219.867 143.42 220.378 142.017 221.199 140.796C222.02 139.574 223.126 138.571 224.421 137.874ZM213.48 138.348C214.582 137.243 215.461 135.935 216.068 134.497C217.17 135.604 218.478 136.483 219.919 137.085C218.818 138.191 217.939 139.499 217.331 140.937C216.22 139.864 214.918 139.008 213.492 138.413L213.48 138.348Z" fill="black"/>
</g>
<defs>
<clipPath id="clip0_7_90">
<rect width="210" height="210" fill="white" transform="translate(40.4319 199.503) rotate(-101.101)"/>
</clipPath>
</defs>
</svg>
