<svg width="950" height="138" viewBox="0 0 950 138" fill="none" xmlns="http://www.w3.org/2000/svg">
<path d="M0 0H950V78C950 111.137 923.137 138 890 138H0V0Z" fill="#D9D9D9"/>
<path d="M161.832 76.096C161.811 76.416 161.341 76.576 160.424 76.576C159.208 75.7653 158.579 74.8267 158.536 73.76C158.429 72.8 157.981 70.0587 157.192 65.536C157.085 64.832 156.979 64.1813 156.872 63.584C156.787 62.9653 156.712 62.4107 156.648 61.92C156.243 60 155.773 58.6773 155.24 57.952C154.835 57.4613 154.355 57.0667 153.8 56.768C153.629 56.768 153.501 56.5973 153.416 56.256C153.309 55.7013 153.587 55.392 154.248 55.328C155.891 55.648 158.099 55.808 160.872 55.808C161.171 55.8293 161.363 55.9573 161.448 56.192C161.533 56.4267 161.544 56.6507 161.48 56.864L161.384 57.216C160.168 57.9413 159.464 58.4533 159.272 58.752C159.08 59.0293 158.984 59.616 158.984 60.512C159.155 61.0667 159.304 61.824 159.432 62.784C159.581 63.7227 159.709 64.8533 159.816 66.176C159.901 67.0507 159.987 67.8507 160.072 68.576C160.179 69.28 160.296 69.8987 160.424 70.432C160.509 70.7307 160.648 71.008 160.84 71.264C161.053 71.4987 161.256 71.616 161.448 71.616C161.661 71.616 161.789 71.4133 161.832 71.008V70.912C162.344 69.3547 162.877 67.9573 163.432 66.72C163.987 65.4613 164.563 64.3413 165.16 63.36C165.373 62.6347 165.768 62.272 166.344 62.272C166.899 62.336 167.283 62.6987 167.496 63.36C167.56 63.552 167.656 63.7973 167.784 64.096C167.912 64.3733 168.061 64.704 168.232 65.088C168.787 66.304 169.171 67.3067 169.384 68.096C169.512 68.352 169.704 69.088 169.96 70.304C170.003 70.5387 170.056 70.752 170.12 70.944C170.184 71.1147 170.248 71.264 170.312 71.392C170.525 71.4773 170.696 71.488 170.824 71.424C170.973 71.3387 171.091 71.232 171.176 71.104L171.272 70.912C171.549 68.8213 171.805 66.912 172.04 65.184C172.275 63.456 172.499 61.8987 172.712 60.512C173.16 59.5947 173.32 58.912 173.192 58.464C173.107 58.1653 172.947 57.9093 172.712 57.696C172.371 57.376 171.731 57.216 170.792 57.216C170.429 57.216 170.163 57.024 169.992 56.64C169.843 56.2347 169.981 55.968 170.408 55.84C170.472 55.8187 170.536 55.808 170.6 55.808C170.664 55.808 170.728 55.808 170.792 55.808H175.528C176.467 55.808 176.979 55.8827 177.064 56.032C177.128 56.224 176.936 56.7787 176.488 57.696C175.763 59.5733 175.165 61.504 174.696 63.488C174.227 65.4507 173.875 67.456 173.64 69.504C173.597 69.6533 173.544 69.856 173.48 70.112C173.437 70.3467 173.373 70.6347 173.288 70.976C172.755 73.3653 172.243 75.04 171.752 76C171.325 76.3627 170.835 76.448 170.28 76.256C170.109 76.192 169.971 76.1067 169.864 76C168.947 75.4453 168.467 74.6453 168.424 73.6C168.125 72.4053 167.891 71.392 167.72 70.56C167.571 69.7067 167.496 69.0347 167.496 68.544C167.411 68.3093 167.283 67.9893 167.112 67.584C166.963 67.1573 166.803 66.7947 166.632 66.496C166.461 66.176 166.28 65.9093 166.088 65.696C165.405 66.3787 164.723 67.5413 164.04 69.184C163.699 69.9733 163.443 70.5493 163.272 70.912C162.995 71.68 162.515 73.408 161.832 76.096ZM191.529 75.52C189.652 76.4373 187.604 76.5333 185.385 75.808C184.873 75.6587 183.935 75.2747 182.569 74.656C180.799 73.4613 179.839 71.872 179.689 69.888C179.647 68.992 179.753 68.16 180.009 67.392C180.692 64.5973 182.388 62.752 185.097 61.856C185.439 61.7493 185.791 61.664 186.153 61.6C186.516 61.5147 186.879 61.4507 187.241 61.408H189.417C191.38 61.408 192.735 61.8453 193.481 62.72C194.015 63.424 194.495 64.6933 194.921 66.528C195.241 67.1253 195.049 67.6053 194.345 67.968C194.153 68.0533 193.929 68.1493 193.673 68.256C193.247 68.256 191.892 68.384 189.609 68.64C188.137 68.7893 186.921 68.7893 185.961 68.64C184.553 68.64 183.423 68.7893 182.569 69.088C182.185 70.5813 182.399 71.8293 183.209 72.832C183.38 73.024 183.583 73.2053 183.817 73.376C185.076 74.336 186.111 74.8693 186.921 74.976C187.583 75.04 188.265 74.9333 188.969 74.656C190.057 74.2933 190.943 74.016 191.625 73.824C192.329 73.6107 192.831 73.4613 193.129 73.376C193.343 73.1413 193.599 73.1307 193.897 73.344C194.303 73.6 194.281 73.9733 193.833 74.464C193.791 74.528 193.737 74.592 193.673 74.656C193.503 74.8267 193.044 75.0187 192.297 75.232C192.02 75.3173 191.764 75.4133 191.529 75.52ZM183.689 67.136C183.988 67.3067 184.319 67.392 184.681 67.392C185.407 67.392 187.668 67.264 191.465 67.008C191.636 66.9867 191.796 66.976 191.945 66.976C192.095 66.976 192.233 66.9653 192.361 66.944C193.044 66.9013 193.257 66.3893 193.001 65.408C192.745 64.512 192.308 63.8187 191.689 63.328C191.476 63.1787 191.284 63.104 191.113 63.104H189.417C186.772 62.6773 184.895 63.3067 183.785 64.992C183.636 65.2053 183.508 65.4293 183.401 65.664C183.081 66.304 183.177 66.7947 183.689 67.136ZM205.02 76.064C204.721 76.0853 204.273 76.0747 203.676 76.032C203.1 76.0107 202.385 75.9467 201.532 75.84C200.209 75.712 199.132 75.7867 198.299 76.064C197.894 76.064 197.628 75.8613 197.5 75.456C197.35 75.008 197.564 74.6987 198.14 74.528C198.246 74.5067 198.342 74.496 198.428 74.496C198.534 74.4747 198.63 74.464 198.716 74.464C199.953 74.144 200.614 73.248 200.7 71.776V59.296C200.7 58.272 200.529 57.6853 200.188 57.536C199.91 57.4507 199.281 57.504 198.299 57.696C197.617 58.0587 197.094 57.952 196.732 57.376C196.518 56.992 196.508 56.704 196.7 56.512C196.828 56.512 197.382 56.3947 198.364 56.16C198.449 56.1387 198.513 56.128 198.556 56.128C198.62 56.1067 198.673 56.096 198.716 56.096C198.886 56.0533 199.089 56.0107 199.324 55.968C199.558 55.9253 199.825 55.872 200.124 55.808C201.382 55.5093 202.15 55.4453 202.428 55.616C202.833 55.8507 203.046 56.6293 203.068 57.952V60.096C203.068 63.808 202.94 66.7413 202.684 68.896V71.264C202.684 72.5227 202.822 73.2907 203.1 73.568C203.356 73.7813 203.953 73.9733 204.892 74.144C205.02 74.1653 205.126 74.208 205.212 74.272C205.318 74.3147 205.414 74.368 205.5 74.432C205.542 74.4107 205.596 74.5067 205.66 74.72C205.745 74.912 205.788 75.0933 205.788 75.264C205.788 75.4133 205.713 75.584 205.564 75.776C205.436 75.968 205.254 76.064 205.02 76.064ZM221.314 75.008C218.092 76.8 214.85 76.9387 211.586 75.424C210.86 75.0827 210.082 74.6347 209.25 74.08C207.884 73.1627 207.415 71.776 207.842 69.92C208.098 67.1893 209.25 65.024 211.298 63.424C213.218 61.9733 215.468 61.3547 218.05 61.568C218.775 61.2053 219.468 61.5147 220.13 62.496C220.172 62.5813 220.215 62.656 220.258 62.72C220.3 62.784 220.343 62.8587 220.386 62.944C221.218 63.7547 221.356 64.4373 220.802 64.992C220.738 65.0347 220.674 65.088 220.61 65.152C220.546 65.1947 220.471 65.2373 220.386 65.28C220.194 65.472 219.884 65.3867 219.458 65.024C219.074 64.6827 218.764 64.4587 218.53 64.352C216.524 62.7307 214.54 62.72 212.578 64.32C212.492 64.4053 212.396 64.4907 212.29 64.576C212.204 64.64 212.119 64.7147 212.034 64.8C211.692 65.3333 211.362 65.952 211.042 66.656C210.743 67.3387 210.455 68.1173 210.178 68.992C209.687 70.5067 209.996 71.904 211.106 73.184C211.959 74.1653 213.036 74.7733 214.338 75.008C215.319 75.008 216.343 74.9333 217.41 74.784C218.498 74.6133 219.639 74.3787 220.834 74.08C221.154 73.7813 221.42 73.8027 221.634 74.144C221.719 74.2933 221.762 74.432 221.762 74.56C221.762 74.56 221.751 74.592 221.73 74.656C221.708 74.6987 221.676 74.7733 221.634 74.88C221.548 74.9653 221.442 75.008 221.314 75.008ZM232.906 75.872C231.498 76.5547 229.855 76.6293 227.978 76.096C226.271 75.584 224.949 74.6987 224.01 73.44C223.455 71.84 223.306 70.4853 223.562 69.376V66.944C223.925 64.768 225.055 63.104 226.954 61.952C227.189 61.8027 227.434 61.6747 227.69 61.568C227.946 61.44 228.202 61.3333 228.458 61.248C231.039 60.928 233.471 61.8773 235.754 64.096C237.205 65.7387 237.781 67.6693 237.482 69.888C237.183 72.064 236.17 73.7707 234.442 75.008C233.973 75.3493 233.461 75.6373 232.906 75.872ZM228.842 74.656C230.869 75.232 232.49 74.88 233.706 73.6C233.983 73.3013 234.218 72.9707 234.41 72.608C234.623 72.2453 234.794 71.8507 234.922 71.424C235.199 70.8693 235.338 70.048 235.338 68.96C235.338 67.5733 235.199 66.496 234.922 65.728C234.709 64.768 234.09 63.9787 233.066 63.36C232.277 62.8693 231.541 62.7093 230.858 62.88C228.895 63.4347 227.551 64.2453 226.826 65.312C225.589 67.4027 225.183 69.7067 225.61 72.224C225.653 73.2053 226.197 73.8773 227.242 74.24C227.391 74.24 227.658 74.3147 228.042 74.464C228.469 74.592 228.735 74.656 228.842 74.656ZM252.259 75.68C250.829 76.0213 249.507 76.1493 248.291 76.064C247.907 76.0427 247.651 75.968 247.523 75.84C247.352 75.1573 247.459 74.7413 247.843 74.592C248.269 74.3787 248.536 74.2187 248.643 74.112C248.941 73.7067 249.08 73.0773 249.059 72.224C249.059 72.16 249.048 71.808 249.027 71.168C249.005 70.528 248.973 69.6 248.931 68.384C248.888 67.1893 248.856 66.272 248.835 65.632C248.813 64.992 248.803 64.6293 248.803 64.544C248.867 63.968 248.483 63.5733 247.651 63.36C247.565 63.3387 247.48 63.328 247.395 63.328C247.309 63.3067 247.235 63.296 247.171 63.296C244.995 64.0853 243.896 65.568 243.875 67.744C243.597 68.704 243.459 70.048 243.459 71.776C243.459 72.8 243.608 73.6107 243.907 74.208C243.949 74.2933 244.003 74.3787 244.067 74.464C244.131 74.5493 244.184 74.6347 244.227 74.72C244.632 75.1253 244.664 75.5307 244.323 75.936C244.195 75.936 244.013 75.936 243.779 75.936C243.565 75.9147 243.299 75.8933 242.979 75.872C242.659 75.8507 242.381 75.84 242.147 75.84C241.933 75.84 241.763 75.84 241.635 75.84C240.909 75.8187 240.419 75.6907 240.163 75.456C239.971 75.264 240.099 74.9973 240.547 74.656C240.632 74.592 240.707 74.5387 240.771 74.496C240.835 74.432 240.877 74.3893 240.899 74.368C241.133 73.792 241.251 73.1733 241.251 72.512V65.504C241.229 64.3307 240.739 63.7227 239.779 63.68C239.587 63.5307 239.469 63.4027 239.427 63.296C239.427 63.0613 239.501 62.8693 239.651 62.72L239.779 62.592C239.864 62.5493 240.387 62.3787 241.347 62.08C241.475 62.0373 241.592 61.9947 241.699 61.952C241.827 61.9093 241.933 61.8667 242.019 61.824C242.061 61.824 242.115 61.824 242.179 61.824C242.264 61.8027 242.349 61.7813 242.435 61.76C242.968 61.6533 243.309 61.6747 243.459 61.824C244.035 62.336 244.781 62.592 245.699 62.592C246.317 62.272 247.203 62.272 248.355 62.592C249.187 62.8267 249.763 62.944 250.083 62.944C250.36 62.944 251.149 62.784 252.451 62.464C252.813 62.3787 253.133 62.3147 253.411 62.272C253.709 62.2293 253.976 62.208 254.211 62.208C256.557 62.656 257.901 63.8827 258.243 65.888C258.349 66.5067 258.435 67.2533 258.499 68.128C258.563 68.9813 258.595 69.952 258.595 71.04C258.701 71.232 258.765 71.6907 258.787 72.416C258.808 72.5867 258.829 72.736 258.851 72.864C258.872 72.992 258.904 73.1093 258.947 73.216C258.925 73.6213 259.053 73.8667 259.331 73.952C259.715 74.1227 259.971 74.3573 260.099 74.656C260.205 74.9547 260.28 75.3813 260.323 75.936C260.003 75.9573 258.36 75.9253 255.395 75.84H255.267C255.245 74.944 255.405 74.336 255.747 74.016C256.131 73.6747 256.387 73.248 256.515 72.736C256.664 72.16 256.739 71.3493 256.739 70.304C256.632 69.8133 256.547 69.1413 256.483 68.288C256.419 67.4133 256.387 66.3573 256.387 65.12C256.387 64.416 256.013 63.872 255.267 63.488C255.011 63.36 254.765 63.296 254.531 63.296C253.293 63.3387 252.312 63.7227 251.587 64.448C250.861 64.8747 250.488 65.3547 250.467 65.888C250.467 69.0667 250.595 71.5093 250.851 73.216C250.851 73.6213 251.085 73.952 251.555 74.208C252.003 74.464 252.259 74.7093 252.323 74.944C252.365 75.2 252.344 75.4453 252.259 75.68ZM274.779 75.52C272.902 76.4373 270.854 76.5333 268.635 75.808C268.123 75.6587 267.185 75.2747 265.819 74.656C264.049 73.4613 263.089 71.872 262.939 69.888C262.897 68.992 263.003 68.16 263.259 67.392C263.942 64.5973 265.638 62.752 268.347 61.856C268.689 61.7493 269.041 61.664 269.403 61.6C269.766 61.5147 270.129 61.4507 270.491 61.408H272.667C274.63 61.408 275.985 61.8453 276.731 62.72C277.265 63.424 277.745 64.6933 278.171 66.528C278.491 67.1253 278.299 67.6053 277.595 67.968C277.403 68.0533 277.179 68.1493 276.923 68.256C276.497 68.256 275.142 68.384 272.859 68.64C271.387 68.7893 270.171 68.7893 269.211 68.64C267.803 68.64 266.673 68.7893 265.819 69.088C265.435 70.5813 265.649 71.8293 266.459 72.832C266.63 73.024 266.833 73.2053 267.067 73.376C268.326 74.336 269.361 74.8693 270.171 74.976C270.833 75.04 271.515 74.9333 272.219 74.656C273.307 74.2933 274.193 74.016 274.875 73.824C275.579 73.6107 276.081 73.4613 276.379 73.376C276.593 73.1413 276.849 73.1307 277.147 73.344C277.553 73.6 277.531 73.9733 277.083 74.464C277.041 74.528 276.987 74.592 276.923 74.656C276.753 74.8267 276.294 75.0187 275.547 75.232C275.27 75.3173 275.014 75.4133 274.779 75.52ZM266.939 67.136C267.238 67.3067 267.569 67.392 267.931 67.392C268.657 67.392 270.918 67.264 274.715 67.008C274.886 66.9867 275.046 66.976 275.195 66.976C275.345 66.976 275.483 66.9653 275.611 66.944C276.294 66.9013 276.507 66.3893 276.251 65.408C275.995 64.512 275.558 63.8187 274.939 63.328C274.726 63.1787 274.534 63.104 274.363 63.104H272.667C270.022 62.6773 268.145 63.3067 267.035 64.992C266.886 65.2053 266.758 65.4293 266.651 65.664C266.331 66.304 266.427 66.7947 266.939 67.136ZM284.654 79.36C284.184 80.2773 283.64 80.6613 283.022 80.512C282.552 80.4053 282.296 80.0533 282.254 79.456C282.254 79.328 282.264 79.232 282.286 79.168C282.904 78.144 282.616 76.9067 281.422 75.456C281.016 74.9867 281.134 74.368 281.774 73.6C281.859 73.5147 281.934 73.44 281.998 73.376C282.062 73.2907 282.136 73.216 282.222 73.152C282.691 72.768 283.288 72.6187 284.014 72.704C284.995 73.3013 285.518 73.9733 285.582 74.72C285.624 74.8907 285.624 75.0613 285.582 75.232C285.582 75.232 285.55 75.6373 285.486 76.448C285.486 76.5333 285.315 77.0453 284.974 77.984C284.803 78.496 284.696 78.9547 284.654 79.36ZM303.278 57.248C302.936 57.4827 302.595 57.6 302.254 57.6C301.23 57.6 300.462 57.1947 299.95 56.384C299.715 56.0213 299.598 55.6587 299.598 55.296C299.768 54.976 299.971 54.688 300.206 54.432C300.462 54.1547 300.76 53.9093 301.102 53.696C301.4 53.504 301.656 53.408 301.87 53.408C302.638 53.408 303.267 53.7813 303.758 54.528C304.014 54.912 304.142 55.296 304.142 55.68C304.142 56.2987 303.854 56.8213 303.278 57.248ZM307.566 75.552C303.683 76.256 300.238 76.3093 297.23 75.712C296.782 75.84 296.494 75.744 296.366 75.424C296.302 75.1893 296.334 74.9333 296.462 74.656C296.867 74.3787 297.582 74.3253 298.606 74.496C298.99 74.5813 299.32 74.624 299.598 74.624C299.875 74.624 300.099 74.6027 300.27 74.56C300.846 74.56 301.176 74.464 301.262 74.272C301.326 74.144 301.358 73.9733 301.358 73.76C301.358 73.7173 301.358 73.664 301.358 73.6C301.379 73.536 301.4 73.4613 301.422 73.376C301.55 72.8427 301.528 72.4693 301.358 72.256C301.272 71.5093 301.304 70.1333 301.454 68.128C301.582 66.3787 301.432 64.9813 301.006 63.936C300.408 63.744 299.459 63.7227 298.158 63.872C298.051 63.8933 297.944 63.904 297.838 63.904C297.752 63.904 297.667 63.9147 297.582 63.936C296.942 63.9787 296.526 63.7973 296.334 63.392C296.142 62.9867 296.408 62.6773 297.134 62.464C297.155 62.4427 297.187 62.432 297.23 62.432C297.464 62.432 298.798 62.336 301.23 62.144C301.998 62.08 302.68 62.048 303.278 62.048C303.534 63.4133 303.598 65.5893 303.47 68.576C303.342 71.0507 303.406 72.9173 303.661 74.176H305.358C305.699 74.1547 306.008 74.144 306.286 74.144C306.584 74.144 306.851 74.144 307.086 74.144C307.256 74.144 307.416 74.2613 307.566 74.496C307.736 74.7307 307.832 74.9653 307.854 75.2C307.875 75.4347 307.779 75.552 307.566 75.552ZM318.675 76.192C318.398 76.2347 318.142 76.2773 317.907 76.32C317.694 76.3627 317.502 76.4053 317.331 76.448C316.03 76.448 314.942 76.1387 314.067 75.52C313.321 74.9653 313.001 74.2507 313.107 73.376C312.979 72.864 312.979 70.6347 313.107 66.688V66.08C313.107 65.2907 312.926 64.8107 312.563 64.64C312.35 64.576 311.891 64.544 311.187 64.544C310.27 64.9493 309.63 64.8213 309.267 64.16C309.161 64.16 309.086 64 309.043 63.68C309.022 63.2747 309.225 63.0507 309.651 63.008C309.694 63.008 309.769 63.008 309.875 63.008C309.982 63.008 310.11 63.0187 310.259 63.04C311.518 63.1467 312.329 62.9973 312.691 62.592C312.969 62.1013 313.107 61.088 313.107 59.552C313.107 59.232 313.289 58.9867 313.651 58.816C313.715 58.7947 313.79 58.784 313.875 58.784C314.558 58.8693 314.942 59.1253 315.027 59.552C315.283 60.0853 315.411 60.8533 315.411 61.856C315.454 62.5813 315.838 62.9653 316.563 63.008H321.939C322.174 62.9653 322.313 63.1253 322.355 63.488C322.398 63.8507 322.259 64.0747 321.939 64.16C321.79 64.1813 321.438 64.2027 320.883 64.224C320.35 64.2453 319.603 64.2773 318.643 64.32C318.238 64.3413 317.865 64.3733 317.523 64.416C317.182 64.4587 316.862 64.5013 316.563 64.544C315.966 64.544 315.603 64.6293 315.475 64.8C315.347 64.9707 315.198 65.3973 315.027 66.08C315.027 66.336 315.027 66.656 315.027 67.04C315.049 67.424 315.07 67.8827 315.091 68.416C315.134 69.5253 315.145 70.5387 315.123 71.456C315.123 72.3733 315.102 73.184 315.059 73.888C315.059 74.272 315.209 74.5813 315.507 74.816C315.614 74.88 315.71 74.912 315.795 74.912C316.051 74.912 316.617 74.8587 317.491 74.752C318.387 74.624 319.582 74.4427 321.075 74.208C321.182 74.1867 321.278 74.176 321.363 74.176C321.449 74.1547 321.502 74.144 321.523 74.144C322.014 73.8667 322.409 73.8773 322.707 74.176C322.963 74.4747 322.835 74.848 322.323 75.296C321.705 75.5947 320.489 75.8933 318.675 76.192ZM332.654 54.048C332.548 56.0533 331.737 57.8027 330.222 59.296H329.678C329.188 59.296 328.942 59.168 328.942 58.912C328.942 58.8693 328.942 58.8267 328.942 58.784C328.964 58.7413 328.985 58.6773 329.006 58.592C329.07 58.3573 329.102 58.208 329.102 58.144C329.977 57.2693 330.233 56.2773 329.87 55.168C329.7 54.7413 329.465 54.3573 329.166 54.016C328.377 53.2693 328.185 52.6933 328.59 52.288C328.59 51.776 328.793 51.3813 329.198 51.104C329.54 50.912 329.913 50.9227 330.318 51.136C331.129 51.136 331.769 51.5627 332.238 52.416C332.516 52.8853 332.654 53.4293 332.654 54.048ZM351.31 75.392C348.537 76.288 345.316 76.512 341.646 76.064C340.985 76.0213 340.633 75.7973 340.59 75.392C340.59 75.2213 340.601 74.9973 340.622 74.72C340.665 74.4427 340.708 74.1227 340.75 73.76C340.793 73.3973 340.825 73.0773 340.846 72.8C340.889 72.5227 340.91 72.2987 340.91 72.128C341.401 71.9573 341.849 72.1493 342.254 72.704C342.638 73.216 342.884 73.5253 342.99 73.632C344.185 74.5707 345.732 74.9547 347.63 74.784C347.78 74.7627 347.918 74.7413 348.046 74.72C348.174 74.6987 348.302 74.6773 348.43 74.656C349.326 74.6133 349.913 74.1333 350.19 73.216C350.532 72.2133 350.457 71.4133 349.966 70.816L349.87 70.72C349.828 70.6773 349.572 70.5067 349.102 70.208C348.974 70.144 348.868 70.0693 348.782 69.984C347.972 69.984 346.766 69.728 345.166 69.216C344.953 69.152 344.761 69.0987 344.59 69.056C344.42 68.992 344.27 68.9493 344.142 68.928C343.438 68.8853 342.83 68.64 342.318 68.192C341.38 67.808 340.868 67.1253 340.782 66.144C340.718 65.312 341.006 64.5653 341.646 63.904C342.372 62.816 343.694 62.0587 345.614 61.632C347.513 61.2693 349.156 61.4293 350.542 62.112C351.289 62.304 351.812 62.8693 352.11 63.808C352.345 64.64 352.292 65.312 351.95 65.824C351.929 66.0373 351.705 66.0267 351.278 65.792C350.745 65.4933 350.5 65.0987 350.542 64.608C349.689 63.3707 348.782 62.6987 347.822 62.592C347.609 62.5707 347.289 62.5813 346.862 62.624C346.436 62.6453 345.881 62.7093 345.198 62.816C344.046 63.1147 343.364 63.7653 343.15 64.768C343.129 64.8533 343.108 64.9493 343.086 65.056C343.086 65.1413 343.086 65.2373 343.086 65.344C343.086 66.1547 343.406 66.8053 344.046 67.296C344.11 67.3387 344.206 67.4133 344.334 67.52C344.462 67.6053 344.633 67.712 344.846 67.84C345.124 68.0747 345.593 68.192 346.254 68.192C347.257 68.4053 348.174 68.6613 349.006 68.96C349.86 69.2373 350.628 69.5787 351.31 69.984C352.185 70.4747 352.761 71.1893 353.038 72.128C353.337 73.216 353.113 74.112 352.366 74.816C352.046 75.0933 351.694 75.2853 351.31 75.392ZM381.633 76.864C380.907 77.0987 380.342 76.9813 379.937 76.512L379.841 76.416C378.859 75.6907 377.75 75.456 376.513 75.712C376.342 75.7333 375.937 75.8293 375.297 76C374.465 76.2773 373.089 76.416 371.169 76.416C369.889 76.416 368.705 75.84 367.617 74.688C367.51 74.56 367.403 74.432 367.297 74.304C367.211 74.176 367.126 74.0587 367.041 73.952C366.358 72.5653 366.283 71.3813 366.817 70.4C367.051 69.952 367.393 69.6107 367.841 69.376C370.059 67.7333 372.129 66.912 374.049 66.912H376.929C377.483 66.5493 377.761 66.1333 377.761 65.664C377.718 64.2133 377.035 63.2533 375.713 62.784C374.411 62.784 373.515 62.9227 373.025 63.2C372.641 63.4133 372.289 63.68 371.969 64C371.649 64.3627 371.233 64.448 370.721 64.256C370.571 64.192 370.443 64.1067 370.337 64C369.803 63.4667 369.665 63.0613 369.921 62.784L370.753 61.952C373.035 61.184 375.169 61.2267 377.153 62.08C377.259 62.1227 377.366 62.176 377.473 62.24C377.579 62.2827 377.675 62.3253 377.761 62.368C379.019 63.392 379.713 64.4907 379.841 65.664C379.99 66.2187 380.097 66.848 380.161 67.552C380.225 68.256 380.257 69.0133 380.257 69.824C380.214 70.0373 380.171 70.3253 380.129 70.688C380.086 71.0507 380.054 71.4987 380.033 72.032C380.011 72.352 379.947 72.576 379.841 72.704C379.862 74.5813 380.545 75.5413 381.889 75.584C382.081 75.584 382.198 75.6373 382.241 75.744C382.262 75.8293 382.273 75.8933 382.273 75.936C382.294 75.9573 382.305 75.9787 382.305 76C382.411 76.384 382.187 76.672 381.633 76.864ZM369.089 73.952C369.366 74.8267 370.006 75.2853 371.009 75.328C371.286 75.328 371.606 75.2747 371.969 75.168C372.779 75.168 374.049 74.848 375.777 74.208C375.947 74.1653 376.097 74.1227 376.225 74.08C376.353 74.016 376.459 73.9733 376.545 73.952C377.313 73.9307 377.718 73.5147 377.761 72.704V71.04C377.974 69.696 377.771 68.8213 377.153 68.416C376.747 68.1387 375.99 67.9147 374.881 67.744C374.731 67.744 374.475 67.776 374.113 67.84C373.75 67.8827 373.27 67.9573 372.673 68.064C372.523 68.0853 372.395 68.1067 372.289 68.128C372.182 68.128 372.075 68.128 371.969 68.128C370.881 68.5333 369.921 69.3653 369.089 70.624C368.662 71.52 368.662 72.6293 369.089 73.952ZM400.998 81.92C401.297 81.984 401.542 82.112 401.734 82.304C401.948 82.5173 402.054 82.8693 402.054 83.36H397.51C396.444 83.36 395.889 83.1787 395.846 82.816C395.846 82.496 396.134 81.856 396.71 80.896C396.988 80.5973 397.126 79.904 397.126 78.816V64.768C397.126 64.128 396.849 63.6907 396.294 63.456C396.252 63.4347 396.198 63.4133 396.134 63.392C396.092 63.3707 396.028 63.3493 395.942 63.328C395.729 63.2213 395.569 63.1573 395.462 63.136C395.121 63.136 394.972 62.9547 395.014 62.592C395.036 62.3147 395.185 62.08 395.462 61.888C396.742 61.4613 397.702 61.3333 398.342 61.504C398.662 61.6107 398.94 61.7387 399.174 61.888C400.156 62.208 401.212 62.2507 402.342 62.016C402.449 61.9947 402.545 61.9733 402.63 61.952C402.716 61.9307 402.801 61.9093 402.886 61.888C405.169 61.5253 407.228 62.4853 409.062 64.768C410.172 66.2613 410.726 68.0533 410.726 70.144C410.726 70.2507 410.694 70.4427 410.63 70.72C410.566 70.9973 410.481 71.36 410.374 71.808C410.353 71.8933 410.332 71.968 410.31 72.032C410.31 72.096 410.31 72.1493 410.31 72.192C408.668 73.5573 407.718 74.3147 407.462 74.464C406.033 75.4453 404.646 75.936 403.302 75.936C402.748 75.6587 401.916 75.52 400.806 75.52C400.124 75.52 399.718 75.6053 399.59 75.776C399.548 75.8613 399.484 75.9787 399.398 76.128C399.334 76.2987 399.26 76.512 399.174 76.768V78.4C399.153 79.296 399.238 80.032 399.43 80.608C399.622 81.12 399.857 81.4507 400.134 81.6C400.284 81.664 400.422 81.7173 400.55 81.76C400.7 81.824 400.849 81.8773 400.998 81.92ZM400.006 72.64C401.18 74.1333 402.726 74.624 404.646 74.112C404.924 74.0267 405.19 73.9413 405.446 73.856C405.702 73.7493 405.948 73.6213 406.182 73.472C406.758 73.088 407.217 72.5333 407.558 71.808C407.921 71.0613 408.156 70.2507 408.262 69.376C408.369 68.5013 408.348 67.648 408.198 66.816C408.049 65.984 407.761 65.28 407.334 64.704C407.292 64.64 407.238 64.576 407.174 64.512C407.11 64.448 407.057 64.3947 407.014 64.352L406.598 63.968C405.169 63.136 403.697 63.0613 402.182 63.744C400.817 64.384 399.974 65.4293 399.654 66.88C399.633 66.944 399.622 67.008 399.622 67.072C399.622 67.136 399.612 67.2 399.59 67.264C399.59 67.3493 399.58 67.4773 399.558 67.648C399.558 67.8187 399.548 68.0427 399.526 68.32C399.377 70.1973 399.398 71.3493 399.59 71.776C399.633 72.3307 399.772 72.6187 400.006 72.64ZM420.52 76.064C420.221 76.0853 419.773 76.0747 419.176 76.032C418.6 76.0107 417.885 75.9467 417.032 75.84C415.709 75.712 414.632 75.7867 413.799 76.064C413.394 76.064 413.128 75.8613 413 75.456C412.85 75.008 413.064 74.6987 413.64 74.528C413.746 74.5067 413.842 74.496 413.928 74.496C414.034 74.4747 414.13 74.464 414.216 74.464C415.453 74.144 416.114 73.248 416.2 71.776V59.296C416.2 58.272 416.029 57.6853 415.688 57.536C415.41 57.4507 414.781 57.504 413.799 57.696C413.117 58.0587 412.594 57.952 412.232 57.376C412.018 56.992 412.008 56.704 412.2 56.512C412.328 56.512 412.882 56.3947 413.864 56.16C413.949 56.1387 414.013 56.128 414.056 56.128C414.12 56.1067 414.173 56.096 414.216 56.096C414.386 56.0533 414.589 56.0107 414.824 55.968C415.058 55.9253 415.325 55.872 415.624 55.808C416.882 55.5093 417.65 55.4453 417.928 55.616C418.333 55.8507 418.546 56.6293 418.568 57.952V60.096C418.568 63.808 418.44 66.7413 418.184 68.896V71.264C418.184 72.5227 418.322 73.2907 418.6 73.568C418.856 73.7813 419.453 73.9733 420.392 74.144C420.52 74.1653 420.626 74.208 420.712 74.272C420.818 74.3147 420.914 74.368 421 74.432C421.042 74.4107 421.096 74.5067 421.16 74.72C421.245 74.912 421.288 75.0933 421.288 75.264C421.288 75.4133 421.213 75.584 421.064 75.776C420.936 75.968 420.754 76.064 420.52 76.064ZM435.342 75.52C433.464 76.4373 431.416 76.5333 429.198 75.808C428.686 75.6587 427.747 75.2747 426.382 74.656C424.611 73.4613 423.651 71.872 423.502 69.888C423.459 68.992 423.566 68.16 423.822 67.392C424.504 64.5973 426.2 62.752 428.91 61.856C429.251 61.7493 429.603 61.664 429.966 61.6C430.328 61.5147 430.691 61.4507 431.054 61.408H433.23C435.192 61.408 436.547 61.8453 437.294 62.72C437.827 63.424 438.307 64.6933 438.734 66.528C439.054 67.1253 438.862 67.6053 438.158 67.968C437.966 68.0533 437.742 68.1493 437.486 68.256C437.059 68.256 435.704 68.384 433.422 68.64C431.95 68.7893 430.734 68.7893 429.774 68.64C428.366 68.64 427.235 68.7893 426.382 69.088C425.998 70.5813 426.211 71.8293 427.022 72.832C427.192 73.024 427.395 73.2053 427.63 73.376C428.888 74.336 429.923 74.8693 430.734 74.976C431.395 75.04 432.078 74.9333 432.782 74.656C433.87 74.2933 434.755 74.016 435.438 73.824C436.142 73.6107 436.643 73.4613 436.942 73.376C437.155 73.1413 437.411 73.1307 437.71 73.344C438.115 73.6 438.094 73.9733 437.646 74.464C437.603 74.528 437.55 74.592 437.486 74.656C437.315 74.8267 436.856 75.0187 436.11 75.232C435.832 75.3173 435.576 75.4133 435.342 75.52ZM427.502 67.136C427.8 67.3067 428.131 67.392 428.494 67.392C429.219 67.392 431.48 67.264 435.278 67.008C435.448 66.9867 435.608 66.976 435.758 66.976C435.907 66.976 436.046 66.9653 436.174 66.944C436.856 66.9013 437.07 66.3893 436.814 65.408C436.558 64.512 436.12 63.8187 435.502 63.328C435.288 63.1787 435.096 63.104 434.926 63.104H433.23C430.584 62.6773 428.707 63.3067 427.598 64.992C427.448 65.2053 427.32 65.4293 427.214 65.664C426.894 66.304 426.99 66.7947 427.502 67.136ZM456.32 76.864C455.595 77.0987 455.029 76.9813 454.624 76.512L454.528 76.416C453.547 75.6907 452.437 75.456 451.2 75.712C451.029 75.7333 450.624 75.8293 449.984 76C449.152 76.2773 447.776 76.416 445.856 76.416C444.576 76.416 443.392 75.84 442.304 74.688C442.197 74.56 442.091 74.432 441.984 74.304C441.899 74.176 441.813 74.0587 441.728 73.952C441.045 72.5653 440.971 71.3813 441.504 70.4C441.739 69.952 442.08 69.6107 442.528 69.376C444.747 67.7333 446.816 66.912 448.736 66.912H451.616C452.171 66.5493 452.448 66.1333 452.448 65.664C452.405 64.2133 451.723 63.2533 450.4 62.784C449.099 62.784 448.203 62.9227 447.712 63.2C447.328 63.4133 446.976 63.68 446.656 64C446.336 64.3627 445.92 64.448 445.408 64.256C445.259 64.192 445.131 64.1067 445.024 64C444.491 63.4667 444.352 63.0613 444.608 62.784L445.44 61.952C447.723 61.184 449.856 61.2267 451.84 62.08C451.947 62.1227 452.053 62.176 452.16 62.24C452.267 62.2827 452.363 62.3253 452.448 62.368C453.707 63.392 454.4 64.4907 454.528 65.664C454.677 66.2187 454.784 66.848 454.848 67.552C454.912 68.256 454.944 69.0133 454.944 69.824C454.901 70.0373 454.859 70.3253 454.816 70.688C454.773 71.0507 454.741 71.4987 454.72 72.032C454.699 72.352 454.635 72.576 454.528 72.704C454.549 74.5813 455.232 75.5413 456.576 75.584C456.768 75.584 456.885 75.6373 456.928 75.744C456.949 75.8293 456.96 75.8933 456.96 75.936C456.981 75.9573 456.992 75.9787 456.992 76C457.099 76.384 456.875 76.672 456.32 76.864ZM443.776 73.952C444.053 74.8267 444.693 75.2853 445.696 75.328C445.973 75.328 446.293 75.2747 446.656 75.168C447.467 75.168 448.736 74.848 450.464 74.208C450.635 74.1653 450.784 74.1227 450.912 74.08C451.04 74.016 451.147 73.9733 451.232 73.952C452 73.9307 452.405 73.5147 452.448 72.704V71.04C452.661 69.696 452.459 68.8213 451.84 68.416C451.435 68.1387 450.677 67.9147 449.568 67.744C449.419 67.744 449.163 67.776 448.8 67.84C448.437 67.8827 447.957 67.9573 447.36 68.064C447.211 68.0853 447.083 68.1067 446.976 68.128C446.869 68.128 446.763 68.128 446.656 68.128C445.568 68.5333 444.608 69.3653 443.776 70.624C443.349 71.52 443.349 72.6293 443.776 73.952ZM469.81 75.392C467.037 76.288 463.816 76.512 460.146 76.064C459.485 76.0213 459.133 75.7973 459.09 75.392C459.09 75.2213 459.101 74.9973 459.122 74.72C459.165 74.4427 459.208 74.1227 459.25 73.76C459.293 73.3973 459.325 73.0773 459.346 72.8C459.389 72.5227 459.41 72.2987 459.41 72.128C459.901 71.9573 460.349 72.1493 460.754 72.704C461.138 73.216 461.384 73.5253 461.49 73.632C462.685 74.5707 464.232 74.9547 466.13 74.784C466.28 74.7627 466.418 74.7413 466.546 74.72C466.674 74.6987 466.802 74.6773 466.93 74.656C467.826 74.6133 468.413 74.1333 468.69 73.216C469.032 72.2133 468.957 71.4133 468.466 70.816L468.37 70.72C468.328 70.6773 468.072 70.5067 467.602 70.208C467.474 70.144 467.368 70.0693 467.282 69.984C466.472 69.984 465.266 69.728 463.666 69.216C463.453 69.152 463.261 69.0987 463.09 69.056C462.92 68.992 462.77 68.9493 462.642 68.928C461.938 68.8853 461.33 68.64 460.818 68.192C459.88 67.808 459.368 67.1253 459.282 66.144C459.218 65.312 459.506 64.5653 460.146 63.904C460.872 62.816 462.194 62.0587 464.114 61.632C466.013 61.2693 467.656 61.4293 469.042 62.112C469.789 62.304 470.312 62.8693 470.61 63.808C470.845 64.64 470.792 65.312 470.45 65.824C470.429 66.0373 470.205 66.0267 469.778 65.792C469.245 65.4933 469 65.0987 469.042 64.608C468.189 63.3707 467.282 62.6987 466.322 62.592C466.109 62.5707 465.789 62.5813 465.362 62.624C464.936 62.6453 464.381 62.7093 463.698 62.816C462.546 63.1147 461.864 63.7653 461.65 64.768C461.629 64.8533 461.608 64.9493 461.586 65.056C461.586 65.1413 461.586 65.2373 461.586 65.344C461.586 66.1547 461.906 66.8053 462.546 67.296C462.61 67.3387 462.706 67.4133 462.834 67.52C462.962 67.6053 463.133 67.712 463.346 67.84C463.624 68.0747 464.093 68.192 464.754 68.192C465.757 68.4053 466.674 68.6613 467.506 68.96C468.36 69.2373 469.128 69.5787 469.81 69.984C470.685 70.4747 471.261 71.1893 471.538 72.128C471.837 73.216 471.613 74.112 470.866 74.816C470.546 75.0933 470.194 75.2853 469.81 75.392ZM490.065 76.704C489.361 77.0453 488.71 77.1093 488.113 76.896C487.964 76.832 487.857 76.768 487.793 76.704C486.897 75.8293 485.777 75.616 484.433 76.064C484.326 76.0853 484.156 76.1493 483.921 76.256C483.793 76.2773 483.697 76.3093 483.633 76.352C482.417 76.8427 481.062 76.8 479.569 76.224C477.905 75.584 476.902 74.5173 476.561 73.024C476.497 72.7253 476.465 72.4373 476.465 72.16V66.112C476.465 65.408 476.39 64.992 476.241 64.864C476.198 64.8213 475.761 64.608 474.929 64.224C474.801 64.224 474.641 64.1813 474.449 64.096C474.001 63.9253 473.66 63.84 473.425 63.84V63.072C473.916 62.7733 474.812 62.4747 476.113 62.176C476.348 62.1333 476.55 62.0907 476.721 62.048C476.892 62.0053 477.052 61.9627 477.201 61.92C478.097 61.3013 478.598 61.5467 478.705 62.656C478.726 62.7413 478.737 62.816 478.737 62.88C478.737 62.944 478.737 63.008 478.737 63.072V72.544C478.737 74.4 479.409 75.36 480.753 75.424C480.966 75.424 481.19 75.4133 481.425 75.392C481.66 75.3493 481.894 75.2853 482.129 75.2C483.11 75.2 484.113 74.944 485.137 74.432C486.95 73.5147 487.708 72.256 487.409 70.656C487.302 70.1013 487.238 68.8107 487.217 66.784C487.196 65.8027 487.132 65.024 487.025 64.448C487.004 63.744 486.63 63.3707 485.905 63.328C485.372 63.328 485.02 63.1147 484.849 62.688C484.7 62.2827 484.881 62.016 485.393 61.888C485.478 61.8667 485.564 61.856 485.649 61.856C485.734 61.8347 485.82 61.824 485.905 61.824C487.441 61.376 488.412 61.3867 488.817 61.856C489.137 62.24 489.297 62.9867 489.297 64.096V74.432C489.425 74.5387 489.532 74.6773 489.617 74.848C489.766 75.04 489.916 75.1573 490.065 75.2C490.534 75.2 490.822 75.4133 490.929 75.84C491.057 76.2667 490.886 76.544 490.417 76.672C490.353 76.6933 490.289 76.704 490.225 76.704C490.161 76.704 490.108 76.704 490.065 76.704ZM502.14 75.808C500.114 76.128 497.703 76.096 494.908 75.712C495.058 75.2427 495.388 74.8587 495.9 74.56C496.092 74.4533 496.231 74.3573 496.316 74.272C496.679 73.8667 496.914 73.3973 497.02 72.864C497.02 72.16 497.052 71.0933 497.116 69.664C497.223 66.8053 497.191 64.6613 497.02 63.232C496.85 63.104 496.338 63.1573 495.484 63.392C494.631 63.6053 493.948 63.648 493.436 63.52C492.924 63.4773 492.839 63.2213 493.18 62.752C493.671 62.2613 494.663 61.8773 496.156 61.6C496.391 61.5573 496.615 61.5253 496.828 61.504C497.042 61.4827 497.234 61.472 497.404 61.472C498.13 61.216 498.631 61.376 498.908 61.952C498.951 62.0373 498.994 62.1333 499.036 62.24C499.079 62.3253 499.122 62.4213 499.164 62.528C499.271 62.6347 499.378 62.816 499.484 63.072C499.612 63.3067 499.708 63.52 499.772 63.712L499.868 63.968C501.639 62.5387 503.655 61.824 505.916 61.824C506.791 61.9307 507.538 62.4533 508.156 63.392C508.242 63.52 508.295 63.6373 508.316 63.744C508.359 63.8293 508.391 63.904 508.412 63.968C507.922 64.8 507.207 64.9173 506.268 64.32C506.055 64.256 505.767 64.128 505.404 63.936C504.594 63.552 503.954 63.4347 503.484 63.584C503.463 63.6053 503.442 63.616 503.42 63.616C501.842 64.4267 500.775 65.248 500.22 66.08C499.516 66.8053 499.164 67.6373 499.164 68.576V71.424C499.164 71.5733 499.164 71.744 499.164 71.936C499.164 72.128 499.154 72.3413 499.132 72.576C499.068 73.2373 499.132 73.6533 499.324 73.824C499.602 73.9947 500.38 74.144 501.66 74.272C502.044 74.3147 502.311 74.4853 502.46 74.784C502.61 75.104 502.503 75.4453 502.14 75.808ZM522.686 75.52C520.808 76.4373 518.76 76.5333 516.542 75.808C516.03 75.6587 515.091 75.2747 513.726 74.656C511.955 73.4613 510.995 71.872 510.846 69.888C510.803 68.992 510.91 68.16 511.166 67.392C511.848 64.5973 513.544 62.752 516.254 61.856C516.595 61.7493 516.947 61.664 517.31 61.6C517.672 61.5147 518.035 61.4507 518.398 61.408H520.574C522.536 61.408 523.891 61.8453 524.638 62.72C525.171 63.424 525.651 64.6933 526.078 66.528C526.398 67.1253 526.206 67.6053 525.502 67.968C525.31 68.0533 525.086 68.1493 524.83 68.256C524.403 68.256 523.048 68.384 520.766 68.64C519.294 68.7893 518.078 68.7893 517.118 68.64C515.71 68.64 514.579 68.7893 513.726 69.088C513.342 70.5813 513.555 71.8293 514.366 72.832C514.536 73.024 514.739 73.2053 514.974 73.376C516.232 74.336 517.267 74.8693 518.078 74.976C518.739 75.04 519.422 74.9333 520.126 74.656C521.214 74.2933 522.099 74.016 522.782 73.824C523.486 73.6107 523.987 73.4613 524.286 73.376C524.499 73.1413 524.755 73.1307 525.054 73.344C525.459 73.6 525.438 73.9733 524.99 74.464C524.947 74.528 524.894 74.592 524.83 74.656C524.659 74.8267 524.2 75.0187 523.454 75.232C523.176 75.3173 522.92 75.4133 522.686 75.52ZM514.846 67.136C515.144 67.3067 515.475 67.392 515.838 67.392C516.563 67.392 518.824 67.264 522.622 67.008C522.792 66.9867 522.952 66.976 523.102 66.976C523.251 66.976 523.39 66.9653 523.518 66.944C524.2 66.9013 524.414 66.3893 524.158 65.408C523.902 64.512 523.464 63.8187 522.846 63.328C522.632 63.1787 522.44 63.104 522.27 63.104H520.574C517.928 62.6773 516.051 63.3067 514.942 64.992C514.792 65.2053 514.664 65.4293 514.558 65.664C514.238 66.304 514.334 66.7947 514.846 67.136ZM548.675 76.192C548.398 76.2347 548.142 76.2773 547.907 76.32C547.694 76.3627 547.502 76.4053 547.331 76.448C546.03 76.448 544.942 76.1387 544.067 75.52C543.321 74.9653 543.001 74.2507 543.107 73.376C542.979 72.864 542.979 70.6347 543.107 66.688V66.08C543.107 65.2907 542.926 64.8107 542.563 64.64C542.35 64.576 541.891 64.544 541.187 64.544C540.27 64.9493 539.63 64.8213 539.267 64.16C539.161 64.16 539.086 64 539.043 63.68C539.022 63.2747 539.225 63.0507 539.651 63.008C539.694 63.008 539.769 63.008 539.875 63.008C539.982 63.008 540.11 63.0187 540.259 63.04C541.518 63.1467 542.329 62.9973 542.691 62.592C542.969 62.1013 543.107 61.088 543.107 59.552C543.107 59.232 543.289 58.9867 543.651 58.816C543.715 58.7947 543.79 58.784 543.875 58.784C544.558 58.8693 544.942 59.1253 545.027 59.552C545.283 60.0853 545.411 60.8533 545.411 61.856C545.454 62.5813 545.838 62.9653 546.563 63.008H551.939C552.174 62.9653 552.313 63.1253 552.355 63.488C552.398 63.8507 552.259 64.0747 551.939 64.16C551.79 64.1813 551.438 64.2027 550.883 64.224C550.35 64.2453 549.603 64.2773 548.643 64.32C548.238 64.3413 547.865 64.3733 547.523 64.416C547.182 64.4587 546.862 64.5013 546.563 64.544C545.966 64.544 545.603 64.6293 545.475 64.8C545.347 64.9707 545.198 65.3973 545.027 66.08C545.027 66.336 545.027 66.656 545.027 67.04C545.049 67.424 545.07 67.8827 545.091 68.416C545.134 69.5253 545.145 70.5387 545.123 71.456C545.123 72.3733 545.102 73.184 545.059 73.888C545.059 74.272 545.209 74.5813 545.507 74.816C545.614 74.88 545.71 74.912 545.795 74.912C546.051 74.912 546.617 74.8587 547.491 74.752C548.387 74.624 549.582 74.4427 551.075 74.208C551.182 74.1867 551.278 74.176 551.363 74.176C551.449 74.1547 551.502 74.144 551.523 74.144C552.014 73.8667 552.409 73.8773 552.707 74.176C552.963 74.4747 552.835 74.848 552.323 75.296C551.705 75.5947 550.489 75.8933 548.675 76.192ZM564.062 75.872C562.654 76.5547 561.012 76.6293 559.134 76.096C557.428 75.584 556.105 74.6987 555.166 73.44C554.612 71.84 554.462 70.4853 554.718 69.376V66.944C555.081 64.768 556.212 63.104 558.11 61.952C558.345 61.8027 558.59 61.6747 558.846 61.568C559.102 61.44 559.358 61.3333 559.614 61.248C562.196 60.928 564.628 61.8773 566.91 64.096C568.361 65.7387 568.937 67.6693 568.638 69.888C568.34 72.064 567.326 73.7707 565.598 75.008C565.129 75.3493 564.617 75.6373 564.062 75.872ZM559.998 74.656C562.025 75.232 563.646 74.88 564.862 73.6C565.14 73.3013 565.374 72.9707 565.566 72.608C565.78 72.2453 565.95 71.8507 566.078 71.424C566.356 70.8693 566.494 70.048 566.494 68.96C566.494 67.5733 566.356 66.496 566.078 65.728C565.865 64.768 565.246 63.9787 564.222 63.36C563.433 62.8693 562.697 62.7093 562.014 62.88C560.052 63.4347 558.708 64.2453 557.982 65.312C556.745 67.4027 556.34 69.7067 556.766 72.224C556.809 73.2053 557.353 73.8773 558.398 74.24C558.548 74.24 558.814 74.3147 559.198 74.464C559.625 74.592 559.892 74.656 559.998 74.656ZM592.81 75.392C590.037 76.288 586.816 76.512 583.146 76.064C582.485 76.0213 582.133 75.7973 582.09 75.392C582.09 75.2213 582.101 74.9973 582.122 74.72C582.165 74.4427 582.208 74.1227 582.25 73.76C582.293 73.3973 582.325 73.0773 582.346 72.8C582.389 72.5227 582.41 72.2987 582.41 72.128C582.901 71.9573 583.349 72.1493 583.754 72.704C584.138 73.216 584.384 73.5253 584.49 73.632C585.685 74.5707 587.232 74.9547 589.13 74.784C589.28 74.7627 589.418 74.7413 589.546 74.72C589.674 74.6987 589.802 74.6773 589.93 74.656C590.826 74.6133 591.413 74.1333 591.69 73.216C592.032 72.2133 591.957 71.4133 591.466 70.816L591.37 70.72C591.328 70.6773 591.072 70.5067 590.602 70.208C590.474 70.144 590.368 70.0693 590.282 69.984C589.472 69.984 588.266 69.728 586.666 69.216C586.453 69.152 586.261 69.0987 586.09 69.056C585.92 68.992 585.77 68.9493 585.642 68.928C584.938 68.8853 584.33 68.64 583.818 68.192C582.88 67.808 582.368 67.1253 582.282 66.144C582.218 65.312 582.506 64.5653 583.146 63.904C583.872 62.816 585.194 62.0587 587.114 61.632C589.013 61.2693 590.656 61.4293 592.042 62.112C592.789 62.304 593.312 62.8693 593.61 63.808C593.845 64.64 593.792 65.312 593.45 65.824C593.429 66.0373 593.205 66.0267 592.778 65.792C592.245 65.4933 592 65.0987 592.042 64.608C591.189 63.3707 590.282 62.6987 589.322 62.592C589.109 62.5707 588.789 62.5813 588.362 62.624C587.936 62.6453 587.381 62.7093 586.698 62.816C585.546 63.1147 584.864 63.7653 584.65 64.768C584.629 64.8533 584.608 64.9493 584.586 65.056C584.586 65.1413 584.586 65.2373 584.586 65.344C584.586 66.1547 584.906 66.8053 585.546 67.296C585.61 67.3387 585.706 67.4133 585.834 67.52C585.962 67.6053 586.133 67.712 586.346 67.84C586.624 68.0747 587.093 68.192 587.754 68.192C588.757 68.4053 589.674 68.6613 590.506 68.96C591.36 69.2373 592.128 69.5787 592.81 69.984C593.685 70.4747 594.261 71.1893 594.538 72.128C594.837 73.216 594.613 74.112 593.866 74.816C593.546 75.0933 593.194 75.2853 592.81 75.392ZM608.873 75.52C606.996 76.4373 604.948 76.5333 602.729 75.808C602.217 75.6587 601.278 75.2747 599.913 74.656C598.142 73.4613 597.182 71.872 597.033 69.888C596.99 68.992 597.097 68.16 597.353 67.392C598.036 64.5973 599.732 62.752 602.441 61.856C602.782 61.7493 603.134 61.664 603.497 61.6C603.86 61.5147 604.222 61.4507 604.585 61.408H606.761C608.724 61.408 610.078 61.8453 610.825 62.72C611.358 63.424 611.838 64.6933 612.265 66.528C612.585 67.1253 612.393 67.6053 611.689 67.968C611.497 68.0533 611.273 68.1493 611.017 68.256C610.59 68.256 609.236 68.384 606.953 68.64C605.481 68.7893 604.265 68.7893 603.305 68.64C601.897 68.64 600.766 68.7893 599.913 69.088C599.529 70.5813 599.742 71.8293 600.553 72.832C600.724 73.024 600.926 73.2053 601.161 73.376C602.42 74.336 603.454 74.8693 604.265 74.976C604.926 75.04 605.609 74.9333 606.313 74.656C607.401 74.2933 608.286 74.016 608.969 73.824C609.673 73.6107 610.174 73.4613 610.473 73.376C610.686 73.1413 610.942 73.1307 611.241 73.344C611.646 73.6 611.625 73.9733 611.177 74.464C611.134 74.528 611.081 74.592 611.017 74.656C610.846 74.8267 610.388 75.0187 609.641 75.232C609.364 75.3173 609.108 75.4133 608.873 75.52ZM601.033 67.136C601.332 67.3067 601.662 67.392 602.025 67.392C602.75 67.392 605.012 67.264 608.809 67.008C608.98 66.9867 609.14 66.976 609.289 66.976C609.438 66.976 609.577 66.9653 609.705 66.944C610.388 66.9013 610.601 66.3893 610.345 65.408C610.089 64.512 609.652 63.8187 609.033 63.328C608.82 63.1787 608.628 63.104 608.457 63.104H606.761C604.116 62.6773 602.238 63.3067 601.129 64.992C600.98 65.2053 600.852 65.4293 600.745 65.664C600.425 66.304 600.521 66.7947 601.033 67.136ZM626.779 75.52C624.902 76.4373 622.854 76.5333 620.635 75.808C620.123 75.6587 619.185 75.2747 617.819 74.656C616.049 73.4613 615.089 71.872 614.939 69.888C614.897 68.992 615.003 68.16 615.259 67.392C615.942 64.5973 617.638 62.752 620.347 61.856C620.689 61.7493 621.041 61.664 621.403 61.6C621.766 61.5147 622.129 61.4507 622.491 61.408H624.667C626.63 61.408 627.985 61.8453 628.731 62.72C629.265 63.424 629.745 64.6933 630.171 66.528C630.491 67.1253 630.299 67.6053 629.595 67.968C629.403 68.0533 629.179 68.1493 628.923 68.256C628.497 68.256 627.142 68.384 624.859 68.64C623.387 68.7893 622.171 68.7893 621.211 68.64C619.803 68.64 618.673 68.7893 617.819 69.088C617.435 70.5813 617.649 71.8293 618.459 72.832C618.63 73.024 618.833 73.2053 619.067 73.376C620.326 74.336 621.361 74.8693 622.171 74.976C622.833 75.04 623.515 74.9333 624.219 74.656C625.307 74.2933 626.193 74.016 626.875 73.824C627.579 73.6107 628.081 73.4613 628.379 73.376C628.593 73.1413 628.849 73.1307 629.147 73.344C629.553 73.6 629.531 73.9733 629.083 74.464C629.041 74.528 628.987 74.592 628.923 74.656C628.753 74.8267 628.294 75.0187 627.547 75.232C627.27 75.3173 627.014 75.4133 626.779 75.52ZM618.939 67.136C619.238 67.3067 619.569 67.392 619.931 67.392C620.657 67.392 622.918 67.264 626.715 67.008C626.886 66.9867 627.046 66.976 627.195 66.976C627.345 66.976 627.483 66.9653 627.611 66.944C628.294 66.9013 628.507 66.3893 628.251 65.408C627.995 64.512 627.558 63.8187 626.939 63.328C626.726 63.1787 626.534 63.104 626.363 63.104H624.667C622.022 62.6773 620.145 63.3067 619.035 64.992C618.886 65.2053 618.758 65.4293 618.651 65.664C618.331 66.304 618.427 66.7947 618.939 67.136ZM647.585 81.632C646.561 82.656 645.1 82.9227 643.201 82.432C642.561 82.112 642.369 81.6533 642.625 81.056C642.838 80.48 643.318 80.1387 644.065 80.032C644.321 79.9893 644.566 80 644.801 80.064C645.164 80.2133 645.526 80.288 645.889 80.288C646.06 80.288 646.209 80.2773 646.337 80.256C646.465 80.256 646.572 80.2453 646.657 80.224C646.828 80.2027 647.062 80.0427 647.361 79.744C647.532 79.552 647.649 79.4133 647.713 79.328C647.798 79.2427 647.884 79.136 647.969 79.008C648.054 78.9013 648.182 78.72 648.353 78.464L648.385 78.432C649.004 77.3867 649.484 76.5333 649.825 75.872C650.166 75.1893 650.38 74.6773 650.465 74.336C650.657 73.4613 650.454 72.3627 649.857 71.04C649.772 70.8267 649.633 70.5387 649.441 70.176C649.27 69.8133 649.057 69.376 648.801 68.864C648.246 67.776 647.841 67.104 647.585 66.848C647.073 64.864 646.028 63.7547 644.449 63.52C644.172 63.4987 643.884 63.168 643.585 62.528C643.5 62.3787 643.436 62.2613 643.393 62.176C643.35 62.0907 643.318 62.0267 643.297 61.984C643.318 61.984 645.548 62.016 649.985 62.08C650.454 62.08 650.732 62.304 650.817 62.752C650.902 63.1573 650.753 63.456 650.369 63.648C649.388 64.032 649.132 64.704 649.601 65.664C649.9 66.8373 650.7 68.704 652.001 71.264C652.812 70.2187 653.516 69.1947 654.113 68.192C654.71 67.1893 655.201 66.2187 655.585 65.28C656.076 64.7893 655.99 64.3413 655.329 63.936C655.265 63.8933 655.18 63.8507 655.073 63.808C654.988 63.7653 654.892 63.712 654.785 63.648C654.422 63.648 654.241 63.4453 654.241 63.04C654.198 62.5493 654.422 62.24 654.913 62.112C654.977 62.0907 655.073 62.08 655.201 62.08L660.449 62.24C660.257 62.7733 659.958 63.1787 659.553 63.456C659.382 63.5627 659.233 63.6693 659.105 63.776C658.977 63.8827 658.87 63.9787 658.785 64.064C658.316 65.0667 657.91 65.7387 657.569 66.08C656.204 68.3413 654.924 70.4747 653.729 72.48C652.534 74.4853 651.414 76.3413 650.369 78.048C649.836 78.8373 649.334 79.5307 648.865 80.128C648.417 80.7253 647.99 81.2267 647.585 81.632ZM672.469 75.872C671.061 76.5547 669.418 76.6293 667.541 76.096C665.834 75.584 664.511 74.6987 663.573 73.44C663.018 71.84 662.869 70.4853 663.125 69.376V66.944C663.487 64.768 664.618 63.104 666.516 61.952C666.751 61.8027 666.997 61.6747 667.253 61.568C667.509 61.44 667.765 61.3333 668.021 61.248C670.602 60.928 673.034 61.8773 675.317 64.096C676.767 65.7387 677.343 67.6693 677.045 69.888C676.746 72.064 675.733 73.7707 674.005 75.008C673.535 75.3493 673.023 75.6373 672.469 75.872ZM668.405 74.656C670.431 75.232 672.053 74.88 673.269 73.6C673.546 73.3013 673.781 72.9707 673.973 72.608C674.186 72.2453 674.357 71.8507 674.485 71.424C674.762 70.8693 674.901 70.048 674.901 68.96C674.901 67.5733 674.762 66.496 674.485 65.728C674.271 64.768 673.653 63.9787 672.629 63.36C671.839 62.8693 671.103 62.7093 670.421 62.88C668.458 63.4347 667.114 64.2453 666.389 65.312C665.151 67.4027 664.746 69.7067 665.173 72.224C665.215 73.2053 665.759 73.8773 666.805 74.24C666.954 74.24 667.221 74.3147 667.605 74.464C668.031 74.592 668.298 74.656 668.405 74.656ZM695.565 76.704C694.861 77.0453 694.21 77.1093 693.613 76.896C693.464 76.832 693.357 76.768 693.293 76.704C692.397 75.8293 691.277 75.616 689.933 76.064C689.826 76.0853 689.656 76.1493 689.421 76.256C689.293 76.2773 689.197 76.3093 689.133 76.352C687.917 76.8427 686.562 76.8 685.069 76.224C683.405 75.584 682.402 74.5173 682.061 73.024C681.997 72.7253 681.965 72.4373 681.965 72.16V66.112C681.965 65.408 681.89 64.992 681.741 64.864C681.698 64.8213 681.261 64.608 680.429 64.224C680.301 64.224 680.141 64.1813 679.949 64.096C679.501 63.9253 679.16 63.84 678.925 63.84V63.072C679.416 62.7733 680.312 62.4747 681.613 62.176C681.848 62.1333 682.05 62.0907 682.221 62.048C682.392 62.0053 682.552 61.9627 682.701 61.92C683.597 61.3013 684.098 61.5467 684.205 62.656C684.226 62.7413 684.237 62.816 684.237 62.88C684.237 62.944 684.237 63.008 684.237 63.072V72.544C684.237 74.4 684.909 75.36 686.253 75.424C686.466 75.424 686.69 75.4133 686.925 75.392C687.16 75.3493 687.394 75.2853 687.629 75.2C688.61 75.2 689.613 74.944 690.637 74.432C692.45 73.5147 693.208 72.256 692.909 70.656C692.802 70.1013 692.738 68.8107 692.717 66.784C692.696 65.8027 692.632 65.024 692.525 64.448C692.504 63.744 692.13 63.3707 691.405 63.328C690.872 63.328 690.52 63.1147 690.349 62.688C690.2 62.2827 690.381 62.016 690.893 61.888C690.978 61.8667 691.064 61.856 691.149 61.856C691.234 61.8347 691.32 61.824 691.405 61.824C692.941 61.376 693.912 61.3867 694.317 61.856C694.637 62.24 694.797 62.9867 694.797 64.096V74.432C694.925 74.5387 695.032 74.6773 695.117 74.848C695.266 75.04 695.416 75.1573 695.565 75.2C696.034 75.2 696.322 75.4133 696.429 75.84C696.557 76.2667 696.386 76.544 695.917 76.672C695.853 76.6933 695.789 76.704 695.725 76.704C695.661 76.704 695.608 76.704 695.565 76.704ZM726.86 75.936C726.006 75.9573 725.185 75.968 724.396 75.968C723.606 75.9467 722.838 75.9147 722.092 75.872C721.729 75.872 721.462 75.7547 721.292 75.52C721.228 75.328 721.345 75.1467 721.644 74.976C722.262 73.7813 722.572 72.9067 722.572 72.352C722.422 71.6693 722.326 70.2293 722.284 68.032C722.262 67.4347 722.23 66.912 722.188 66.464C722.166 66.016 722.124 65.6213 722.06 65.28C722.038 64 721.27 63.1147 719.756 62.624C718.262 62.624 717.206 62.784 716.588 63.104C716.31 63.2533 716.054 63.4347 715.82 63.648C715.585 63.8613 715.35 64.1067 715.116 64.384C714.497 65.5787 714.188 66.6027 714.188 67.456C714.188 67.6267 714.22 68.0107 714.284 68.608C714.348 69.2053 714.433 70.0267 714.54 71.072C714.604 71.712 714.636 72.2667 714.636 72.736C714.636 72.992 714.924 73.408 715.5 73.984L715.564 74.048C716.78 74.0693 717.398 74.208 717.42 74.464C717.42 75.0613 717.174 75.3813 716.684 75.424C716.641 75.424 716.566 75.424 716.46 75.424C716.374 75.424 716.268 75.4133 716.14 75.392C716.012 75.3707 715.894 75.36 715.788 75.36C715.702 75.36 715.628 75.36 715.564 75.36C715.308 75.4453 714.934 75.52 714.444 75.584C713.953 75.648 713.43 75.7013 712.876 75.744C712.342 75.7653 711.852 75.7867 711.404 75.808H710.444C709.974 75.424 709.814 75.1573 709.964 75.008C709.985 74.9867 710.017 74.9653 710.06 74.944C710.102 74.9227 710.156 74.9013 710.22 74.88C710.988 74.4747 711.478 73.8987 711.692 73.152C711.82 72.6613 711.884 72.0853 711.884 71.424C711.862 69.2267 711.884 67.2107 711.948 65.376C712.012 63.5413 712.129 61.8987 712.3 60.448C712.428 58.3147 711.916 57.248 710.764 57.248C710.55 57.248 710.348 57.28 710.156 57.344C709.708 57.344 709.452 57.152 709.388 56.768C709.324 56.384 709.494 56.1493 709.9 56.064C709.964 56.0427 710.049 56.032 710.156 56.032C710.817 55.7333 711.884 55.584 713.356 55.584C714.102 55.584 714.54 55.6907 714.668 55.904C714.753 56.0533 714.796 56.2347 714.796 56.448C714.796 57.6213 714.796 58.5387 714.796 59.2C714.796 59.84 714.806 60.224 714.828 60.352C714.892 60.9493 714.988 61.4293 715.116 61.792H716.012C718.956 61.1307 721.046 61.4187 722.284 62.656C722.881 63.296 723.542 64.4907 724.268 66.24C724.268 66.2827 724.278 66.3253 724.3 66.368C724.342 66.496 724.374 66.5707 724.396 66.592C724.737 67.936 724.908 69.856 724.908 72.352C724.908 73.6107 725.185 74.336 725.74 74.528C725.761 74.5493 725.793 74.56 725.836 74.56C725.878 74.56 725.932 74.5707 725.996 74.592C726.401 74.6773 726.657 74.8907 726.764 75.232C726.785 75.3387 726.796 75.456 726.796 75.584C726.817 75.6907 726.838 75.808 726.86 75.936ZM740.904 75.52C739.027 76.4373 736.979 76.5333 734.76 75.808C734.248 75.6587 733.31 75.2747 731.944 74.656C730.174 73.4613 729.214 71.872 729.064 69.888C729.022 68.992 729.128 68.16 729.384 67.392C730.067 64.5973 731.763 62.752 734.472 61.856C734.814 61.7493 735.166 61.664 735.528 61.6C735.891 61.5147 736.254 61.4507 736.616 61.408H738.792C740.755 61.408 742.11 61.8453 742.856 62.72C743.39 63.424 743.87 64.6933 744.296 66.528C744.616 67.1253 744.424 67.6053 743.72 67.968C743.528 68.0533 743.304 68.1493 743.048 68.256C742.622 68.256 741.267 68.384 738.984 68.64C737.512 68.7893 736.296 68.7893 735.336 68.64C733.928 68.64 732.798 68.7893 731.944 69.088C731.56 70.5813 731.774 71.8293 732.584 72.832C732.755 73.024 732.958 73.2053 733.192 73.376C734.451 74.336 735.486 74.8693 736.296 74.976C736.958 75.04 737.64 74.9333 738.344 74.656C739.432 74.2933 740.318 74.016 741 73.824C741.704 73.6107 742.206 73.4613 742.504 73.376C742.718 73.1413 742.974 73.1307 743.272 73.344C743.678 73.6 743.656 73.9733 743.208 74.464C743.166 74.528 743.112 74.592 743.048 74.656C742.878 74.8267 742.419 75.0187 741.672 75.232C741.395 75.3173 741.139 75.4133 740.904 75.52ZM733.064 67.136C733.363 67.3067 733.694 67.392 734.056 67.392C734.782 67.392 737.043 67.264 740.84 67.008C741.011 66.9867 741.171 66.976 741.32 66.976C741.47 66.976 741.608 66.9653 741.736 66.944C742.419 66.9013 742.632 66.3893 742.376 65.408C742.12 64.512 741.683 63.8187 741.064 63.328C740.851 63.1787 740.659 63.104 740.488 63.104H738.792C736.147 62.6773 734.27 63.3067 733.16 64.992C733.011 65.2053 732.883 65.4293 732.776 65.664C732.456 66.304 732.552 66.7947 733.064 67.136ZM755.547 75.808C753.52 76.128 751.109 76.096 748.315 75.712C748.464 75.2427 748.795 74.8587 749.307 74.56C749.499 74.4533 749.637 74.3573 749.723 74.272C750.085 73.8667 750.32 73.3973 750.427 72.864C750.427 72.16 750.459 71.0933 750.523 69.664C750.629 66.8053 750.597 64.6613 750.427 63.232C750.256 63.104 749.744 63.1573 748.891 63.392C748.037 63.6053 747.355 63.648 746.843 63.52C746.331 63.4773 746.245 63.2213 746.587 62.752C747.077 62.2613 748.069 61.8773 749.562 61.6C749.797 61.5573 750.021 61.5253 750.235 61.504C750.448 61.4827 750.64 61.472 750.811 61.472C751.536 61.216 752.037 61.376 752.315 61.952C752.357 62.0373 752.4 62.1333 752.443 62.24C752.485 62.3253 752.528 62.4213 752.571 62.528C752.677 62.6347 752.784 62.816 752.891 63.072C753.019 63.3067 753.115 63.52 753.179 63.712L753.275 63.968C755.045 62.5387 757.061 61.824 759.323 61.824C760.197 61.9307 760.944 62.4533 761.562 63.392C761.648 63.52 761.701 63.6373 761.722 63.744C761.765 63.8293 761.797 63.904 761.819 63.968C761.328 64.8 760.613 64.9173 759.675 64.32C759.461 64.256 759.173 64.128 758.811 63.936C758 63.552 757.36 63.4347 756.891 63.584C756.869 63.6053 756.848 63.616 756.827 63.616C755.248 64.4267 754.181 65.248 753.627 66.08C752.923 66.8053 752.571 67.6373 752.571 68.576V71.424C752.571 71.5733 752.571 71.744 752.571 71.936C752.571 72.128 752.56 72.3413 752.539 72.576C752.475 73.2373 752.539 73.6533 752.731 73.824C753.008 73.9947 753.787 74.144 755.067 74.272C755.451 74.3147 755.717 74.4853 755.867 74.784C756.016 75.104 755.909 75.4453 755.547 75.808ZM776.092 75.52C774.214 76.4373 772.166 76.5333 769.948 75.808C769.436 75.6587 768.497 75.2747 767.132 74.656C765.361 73.4613 764.401 71.872 764.252 69.888C764.209 68.992 764.316 68.16 764.572 67.392C765.254 64.5973 766.95 62.752 769.66 61.856C770.001 61.7493 770.353 61.664 770.716 61.6C771.078 61.5147 771.441 61.4507 771.804 61.408H773.98C775.942 61.408 777.297 61.8453 778.044 62.72C778.577 63.424 779.057 64.6933 779.484 66.528C779.804 67.1253 779.612 67.6053 778.908 67.968C778.716 68.0533 778.492 68.1493 778.236 68.256C777.809 68.256 776.454 68.384 774.172 68.64C772.7 68.7893 771.484 68.7893 770.524 68.64C769.116 68.64 767.985 68.7893 767.132 69.088C766.748 70.5813 766.961 71.8293 767.772 72.832C767.942 73.024 768.145 73.2053 768.38 73.376C769.638 74.336 770.673 74.8693 771.484 74.976C772.145 75.04 772.828 74.9333 773.532 74.656C774.62 74.2933 775.505 74.016 776.188 73.824C776.892 73.6107 777.393 73.4613 777.692 73.376C777.905 73.1413 778.161 73.1307 778.46 73.344C778.865 73.6 778.844 73.9733 778.396 74.464C778.353 74.528 778.3 74.592 778.236 74.656C778.065 74.8267 777.606 75.0187 776.86 75.232C776.582 75.3173 776.326 75.4133 776.092 75.52ZM768.252 67.136C768.55 67.3067 768.881 67.392 769.244 67.392C769.969 67.392 772.23 67.264 776.028 67.008C776.198 66.9867 776.358 66.976 776.508 66.976C776.657 66.976 776.796 66.9653 776.924 66.944C777.606 66.9013 777.82 66.3893 777.564 65.408C777.308 64.512 776.87 63.8187 776.252 63.328C776.038 63.1787 775.846 63.104 775.676 63.104H773.98C771.334 62.6773 769.457 63.3067 768.348 64.992C768.198 65.2053 768.07 65.4293 767.964 65.664C767.644 66.304 767.74 66.7947 768.252 67.136ZM788.558 71.296C788.43 71.36 788.323 71.392 788.238 71.392C788.238 71.392 788.206 71.3493 788.142 71.264C788.078 71.1787 787.971 71.0507 787.822 70.88C787.737 70.7307 787.694 70.5813 787.694 70.432C787.694 70.0907 787.694 69.8027 787.694 69.568C787.694 69.312 787.683 69.0987 787.662 68.928C787.641 68.0747 787.619 67.0293 787.598 65.792C787.577 64.5333 787.545 63.0827 787.502 61.44C787.395 57.4507 787.331 54.464 787.31 52.48C787.31 51.712 787.769 51.2213 788.686 51.008C788.793 50.9867 788.889 50.976 788.974 50.976C789.081 50.9547 789.177 50.944 789.262 50.944C790.051 51.3067 790.553 51.8613 790.766 52.608C790.787 52.672 790.798 52.736 790.798 52.8C790.819 52.8427 790.83 52.8853 790.83 52.928C790.83 53.248 790.702 53.76 790.446 54.464C790.382 54.6133 790.35 54.752 790.35 54.88C789.753 57.44 789.465 59.456 789.486 60.928C789.294 61.8027 789.294 63.36 789.486 65.6C789.529 66.0053 789.561 66.3573 789.582 66.656C789.603 66.9333 789.614 67.1787 789.614 67.392C789.635 68.0533 789.603 68.6293 789.518 69.12C789.454 69.6107 789.347 70.0373 789.198 70.4C789.198 70.8053 788.985 71.104 788.558 71.296ZM789.166 78.144C789.102 78.1653 789.038 78.1973 788.974 78.24C788.91 78.2827 788.835 78.3253 788.75 78.368C788.089 78.368 787.513 78.0587 787.022 77.44C786.851 77.2053 786.766 77.0133 786.766 76.864C786.766 76.1813 787.107 75.616 787.79 75.168C788.11 74.976 788.43 74.88 788.75 74.88C789.262 74.88 789.795 75.1893 790.35 75.808C790.478 75.9787 790.606 76.16 790.734 76.352C790.734 77.0133 790.211 77.6107 789.166 78.144Z" fill="black"/>
</svg>
