<svg width="156" height="164" viewBox="0 0 156 164" fill="none" xmlns="http://www.w3.org/2000/svg">
<path d="M64.0061 123.488C62.6104 124.023 63.6055 156.353 78.0238 155.723C92.442 155.092 93.0679 126.386 92.8814 125.517C92.29 122.716 90.0341 123.831 79.8445 124.91C69.655 125.99 65.4012 122.926 64.0061 123.488ZM89.2516 128.236C90.1623 128.751 87.9804 152.876 77.4146 152.05C66.8487 151.224 66.3981 129.066 67.9654 128.668C69.5326 128.271 73.8112 129.787 79.066 129.512C84.3209 129.236 88 127.558 89.2516 128.236ZM66.9839 114.989C68.0341 114.067 68.8955 113.543 68.5398 112.65C66.3119 111.086 63.8464 109.892 61.2382 109.114C60.3631 108.963 60.9117 109.655 60.775 111.233C60.6383 112.811 66.1546 115.709 66.9839 114.989ZM69.2759 105.968C69.7993 105.423 70.9942 104.696 70.8043 103.659C70.6144 102.622 62.0889 98.3785 60.8482 98.2349C59.6075 98.0914 60.5394 99.6478 60.7327 100.853C60.926 102.059 68.7801 106.485 69.2759 105.968ZM59.6934 92.6323C59.3525 93.8488 70.3628 98.5478 71.2385 98.7269C71.6037 98.594 71.917 98.3482 72.133 98.0251C72.349 97.702 72.4565 97.3185 72.4397 96.9302C72.4111 95.5243 62.1112 91.1766 60.5291 90.843C58.947 90.5095 60.0057 91.3882 59.6934 92.6323ZM86.417 75.998C86.7309 75.6059 86.9266 75.1324 86.9812 74.6331C87.0358 74.1338 86.9471 73.6293 86.7254 73.1786C84.0986 72.4987 81.3994 72.138 78.6862 72.1043C76.1378 72.0486 73.5949 72.3657 71.1382 73.0455C70.8116 73.5866 71.1845 75.3232 71.1845 75.3232C71.1845 75.3232 74.1898 75.0933 78.9173 75.1659C83.6447 75.2386 85.4477 76.7491 86.417 75.998ZM78.5843 61.5574C83.3398 61.6294 85.113 63.0562 86.0817 62.277C86.4007 61.8869 86.5975 61.4113 86.6473 60.9099C86.6972 60.4084 86.5979 59.9034 86.3619 59.4582C83.741 58.8019 81.053 58.4506 78.3515 58.4114C75.8024 58.3432 73.2577 58.6605 70.8035 59.3526C70.4763 59.8656 70.8498 61.6303 70.8498 61.6303C70.8498 61.6303 73.8287 61.4853 78.5843 61.5574ZM78.5097 45.4399C83.2371 45.5126 85.0102 46.9393 85.979 46.1601C86.2993 45.7712 86.4991 45.2972 86.5539 44.7964C86.6086 44.2956 86.516 43.7897 86.2873 43.3407C83.6606 42.6608 80.9614 42.3001 78.2482 42.2665C75.7083 42.1943 73.1722 42.5115 70.7283 43.2071C70.3736 43.7488 70.7746 45.4847 70.7746 45.4847C70.7746 45.4847 73.7575 45.5366 78.5097 45.4399ZM28.509 64.2073C28.509 64.2073 29.7986 62.6058 29.619 62.0749C27.3606 60.1285 25.0042 58.2986 22.5592 56.5923C22.274 56.4012 21.944 56.7736 21.7913 57.5644C21.6386 58.3552 28.1653 63.9049 28.5113 64.3198L28.509 64.2073ZM35.4156 62.154C35.4156 62.154 36.8876 61.2238 36.9559 60.4348C37.0243 59.6457 24.8 50.583 24.3782 50.5916C23.9564 50.6002 23.6895 51.3089 23.5139 52.3533C23.3382 53.3977 34.6305 62.2825 35.4179 62.2664L35.4156 62.154ZM29.9717 48.9869C32.429 51.3168 35.2179 53.2698 38.2475 54.7824C38.694 54.6045 39.7058 53.1774 39.5263 52.6465C36.9916 50.5815 34.0988 49.0002 30.9921 47.9816C29.1368 48.0475 30.3023 48.6426 29.974 49.0994L29.9717 48.9869ZM3.7637 46.7068C8.98021 61.1444 20.3514 66.9894 33.3247 82.4507C46.298 97.912 53.4446 125.644 56.7337 137.983C60.0227 150.322 62.6758 164.587 78.1276 163.597C93.5795 162.608 94.9714 150.821 98.329 143.017C101.687 135.212 105.993 104.884 116.415 87.5686C126.837 70.2531 134.598 70.0952 145.401 60.4798C156.205 50.8644 155.594 42.944 155.038 37.7792C154.483 32.6144 148.611 32.9589 148.611 32.9589C148.611 32.9589 149.059 25.9171 149.041 25.0454C149.023 24.1737 145.96 21.5636 136.635 20.9093C127.311 20.255 114.671 21.1872 114.158 22.2384C113.869 23.3327 113.835 24.4784 114.057 25.5881L107.899 25.7133C108.194 21.906 108.06 18.0775 107.498 14.3003C106.58 12.0123 97.9367 11.6817 97.9367 11.6817C98.3423 8.52241 98.5781 5.34365 98.6432 2.1591C98.4109 0.419716 93.3173 0.326386 82.6005 0.375547C71.8836 0.424707 61.3498 1.17342 60.4786 2.59768C59.6074 4.02194 61.2021 11.8943 61.2021 11.8943C60.4404 11.9199 59.6809 11.9917 58.9279 12.1093C56.5027 12.5092 54.291 13.7372 52.6691 15.5842C51.3061 17.7217 52.6863 24.7263 52.6863 24.7263L47.5755 25.1678C47.5755 25.1678 46.991 21.3258 46.9692 20.2573C46.9475 19.1887 42.1851 18.7792 34.6176 18.7643C27.0501 18.7495 15.3283 20.5632 14.8117 21.4457C14.686 23.4727 14.8601 25.5072 15.3284 27.4833C15.3284 27.4833 4.09498 28.4151 2.94667 28.6635C1.79836 28.9119 -1.44823 32.4942 3.76885 46.9599L3.7637 46.7068ZM49.4534 102.292C47.3886 96.3041 44.6974 90.5505 41.4246 85.1272C36.6907 77.825 30.8341 74.7935 32.0571 74.0653C33.28 73.3372 41.4137 76.2943 45.2684 83.2486C48.2209 89.1513 49.6591 95.6957 49.4534 102.292ZM109.161 87.7442C104.131 99.0988 101.943 104.938 101.943 104.938C101.24 104.953 100.864 94.7769 104.551 85.1937C108.239 75.6104 114.1 70.5965 117.762 69.453C120.457 68.7182 123.218 68.2568 126.005 68.0758C126.005 68.0758 114.218 76.389 109.161 87.7442ZM122.511 26.2882C126.652 25.7235 130.85 25.6948 134.999 26.203C141.143 26.7813 142.197 26.0566 142.248 28.5311C142.298 31.0056 143.595 43.6099 130.421 43.1746C129.313 43.1752 128.215 42.9574 127.191 42.5337C126.167 42.11 125.236 41.4887 124.452 40.7053C123.669 39.9219 123.047 38.9917 122.622 37.9678C122.198 36.944 121.979 35.8465 121.979 34.7382C121.89 30.3516 121.45 26.6755 122.511 26.2882ZM64.3417 4.43201C69.9131 3.53421 75.5548 3.14641 81.1966 3.27344C88.7939 3.37211 93.9627 3.01382 94.5698 3.81727C94.9769 6.08503 94.8607 8.4158 94.2302 10.6318C94.0391 10.917 87.3008 10.182 79.5732 10.5923C74.7954 11.1187 69.9941 11.4041 65.1876 11.4475C64.5478 9.16618 64.2625 6.80004 64.3417 4.43201ZM21.2243 25.5349C24.9228 24.4599 28.7654 23.9642 32.6156 24.0655C38.236 23.7824 41.0513 23.894 41.4706 26.5297C41.8899 29.1655 41.9001 39.3487 31.201 40.2695C22.6068 40.9506 19.6674 26.4387 21.2243 25.5349ZM6.9353 32.5207L15.188 31.6496C15.729 35.4468 17.6516 38.9112 20.5877 41.3792C23.5238 43.8473 27.2671 45.1456 31.1008 45.0256C45.3647 45.1013 46.9618 28.1903 46.9618 28.1903C46.9618 28.1903 53.2526 26.2901 52.9403 27.5342C52.628 28.7783 54.6623 69.3297 56.9285 77.0196C59.1947 84.7095 63.8251 86.9221 65.744 87.2206C67.663 87.5192 68.8392 83.1068 68.4633 82.6081C68.0875 82.1094 63.0363 82.7185 61.635 66.3749C60.2336 50.0312 56.9866 19.0127 58.8983 17.5673C60.8099 16.1219 72.363 14.3116 84.3279 14.7715C96.2929 15.2315 99.9799 15.3253 101.45 18.446C102.92 21.5668 99.8149 68.0739 98.3689 74.4328C96.9229 80.7916 94.2974 81.717 92.1993 82.2942C91.8404 82.3703 91.502 82.5226 91.2071 82.7409C90.9122 82.9592 90.6676 83.2384 90.4901 83.5595C90.3125 83.8806 90.2061 84.2361 90.178 84.6019C90.1499 84.9678 90.2007 85.3354 90.3272 85.6798C90.7104 86.5441 93.6945 86.6522 96.4921 85.892C99.2898 85.1319 103.96 80.9861 105.044 65.1545C106.129 49.3229 106.973 29.9518 107.479 29.9415C107.985 29.9312 116.829 30.4546 116.829 30.4546C116.829 30.4546 115.569 47.3587 130.008 47.7683C144.448 48.1779 145.808 37.6012 145.808 37.6012C145.808 37.6012 149.498 37.8637 149.355 39.1044C149.211 40.3451 147.564 54.7816 137.977 59.1962C128.389 63.6108 114.183 64.9686 107.83 72.1305C101.478 79.2924 97.9547 96.9458 97.409 104.693C96.8632 112.44 97.9305 130.338 94.7742 139.741C91.6178 149.145 89.5426 159.145 76.3553 159.442C55.3221 159.869 54.3928 82.3598 44.7914 76.3944C40.1453 73.2162 34.9744 70.8834 29.5169 69.5035C21.8277 65.0317 15.5897 58.4392 11.549 50.515C6.01269 38.3344 6.9353 32.5207 6.9353 32.5207Z" fill="#1D1D1B"/>
</svg>
