<svg width="184" height="184" viewBox="0 0 184 184" fill="none" xmlns="http://www.w3.org/2000/svg">
<path d="M76.8174 133.3C75.4217 133.834 76.4168 166.165 90.8351 165.534C105.253 164.903 105.879 136.197 105.693 135.329C105.101 132.528 102.845 133.642 92.6559 134.722C82.4663 135.801 78.2125 132.737 76.8174 133.3ZM102.063 138.047C102.974 138.563 100.792 162.687 90.2259 161.861C79.6601 161.035 79.2094 138.877 80.7767 138.48C82.3439 138.082 86.6225 139.599 91.8774 139.323C97.1322 139.047 100.811 137.369 102.063 138.047ZM79.7952 124.8C80.8454 123.878 81.7068 123.355 81.3511 122.462C79.1232 120.898 76.6577 119.704 74.0496 118.925C73.1744 118.774 73.723 119.466 73.5863 121.044C73.4496 122.622 78.9659 125.52 79.7952 124.8ZM82.0873 115.78C82.6107 115.234 83.8055 114.507 83.6156 113.47C83.4258 112.433 74.9002 108.19 73.6595 108.046C72.4189 107.903 73.3507 109.459 73.544 110.665C73.7373 111.87 81.5914 116.296 82.0873 115.78ZM72.5048 102.444C72.1638 103.66 83.1741 108.359 84.0498 108.538C84.415 108.405 84.7284 108.159 84.9444 107.836C85.1604 107.513 85.2678 107.13 85.251 106.742C85.2224 105.336 74.9225 100.988 73.3404 100.654C71.7583 100.321 72.817 101.199 72.5048 102.444ZM99.2283 85.8092C99.5422 85.4171 99.7379 84.9437 99.7926 84.4444C99.8472 83.9451 99.7584 83.4406 99.5367 82.9899C96.9099 82.3099 94.2107 81.9493 91.4976 81.9156C88.9491 81.8599 86.4062 82.177 83.9495 82.8568C83.6229 83.3979 83.9958 85.1344 83.9958 85.1344C83.9958 85.1344 87.0011 84.9045 91.7286 84.9772C96.4561 85.0498 98.259 86.5604 99.2283 85.8092ZM91.3956 71.3686C96.1512 71.4407 97.9243 72.8675 98.893 72.0882C99.212 71.6982 99.4088 71.2226 99.4587 70.7211C99.5085 70.2197 99.4092 69.7147 99.1733 69.2694C96.5524 68.6132 93.8644 68.2619 91.1628 68.2227C88.6138 68.1545 86.069 68.4718 83.6148 69.1639C83.2876 69.6769 83.6611 71.4416 83.6611 71.4416C83.6611 71.4416 86.64 71.2966 91.3956 71.3686ZM91.321 55.2512C96.0484 55.3238 97.8216 56.7506 98.7903 55.9714C99.1106 55.5825 99.3104 55.1085 99.3652 54.6077C99.42 54.1069 99.3273 53.6009 99.0987 53.152C96.4719 52.4721 93.7727 52.1114 91.0595 52.0777C88.5196 52.0056 85.9835 52.3228 83.5396 53.0183C83.1849 53.56 83.5859 55.296 83.5859 55.296C83.5859 55.296 86.5688 55.3478 91.321 55.2512ZM41.3204 74.0186C41.3204 74.0186 42.6099 72.4171 42.4304 71.8862C40.1719 69.9398 37.8156 68.1098 35.3705 66.4036C35.0854 66.2125 34.7553 66.5849 34.6026 67.3757C34.4499 68.1665 40.9766 73.7161 41.3226 74.1311L41.3204 74.0186ZM48.2269 71.9652C48.2269 71.9652 49.6989 71.0351 49.7673 70.2461C49.8356 69.457 37.6113 60.3943 37.1895 60.4029C36.7678 60.4115 36.5009 61.1202 36.3252 62.1646C36.1495 63.209 47.4419 72.0937 48.2292 72.0777L48.2269 71.9652ZM42.7831 58.7982C45.2403 61.1281 48.0292 63.0811 51.0589 64.5936C51.5053 64.4158 52.5172 62.9887 52.3376 62.4578C49.8029 60.3928 46.9101 58.8115 43.8035 57.7929C41.9482 57.8587 43.1136 58.4539 42.7854 58.9107L42.7831 58.7982ZM16.575 56.5181C21.7915 70.9557 33.1627 76.8007 46.136 92.262C59.1093 107.723 66.2559 135.456 69.545 147.794C72.8341 160.133 75.4871 174.398 90.939 173.408C106.391 172.419 107.783 160.632 111.14 152.828C114.498 145.024 118.804 114.695 129.226 97.3798C139.648 80.0643 147.409 79.9065 158.212 70.2911C169.016 60.6757 168.405 52.7553 167.85 47.5905C167.295 42.4257 161.422 42.7702 161.422 42.7702C161.422 42.7702 161.87 35.7284 161.852 34.8566C161.834 33.985 158.771 31.3748 149.447 30.7205C140.122 30.0663 127.482 30.9984 126.969 32.0497C126.681 33.144 126.646 34.2897 126.868 35.3993L120.71 35.5246C121.006 31.7173 120.871 27.8888 120.309 24.1116C119.391 21.8236 110.748 21.493 110.748 21.493C111.154 18.3337 111.389 15.1549 111.455 11.9704C111.222 10.231 106.129 10.1377 95.4118 10.1868C84.695 10.236 74.1611 10.9847 73.2899 12.409C72.4187 13.8332 74.0135 21.7055 74.0135 21.7055C73.2517 21.7312 72.4923 21.803 71.7392 21.9206C69.314 22.3205 67.1023 23.5485 65.4805 25.3954C64.1174 27.533 65.4976 34.5376 65.4976 34.5376L60.3868 34.9791C60.3868 34.9791 59.8023 31.1371 59.7806 30.0685C59.7588 29 54.9964 28.5905 47.4289 28.5756C39.8614 28.5607 28.1396 30.3744 27.6231 31.257C27.4973 33.284 27.6714 35.3185 28.1397 37.2946C28.1397 37.2946 16.9063 38.2263 15.758 38.4748C14.6097 38.7231 11.3631 42.3055 16.5802 56.7712L16.575 56.5181ZM62.2647 112.104C60.1999 106.115 57.5087 100.362 54.2359 94.9384C49.5021 87.6363 43.6455 84.6048 44.8684 83.8766C46.0913 83.1485 54.225 86.1056 58.0797 93.0599C61.0323 98.9626 62.4704 105.507 62.2647 112.104ZM121.972 97.5555C116.942 108.91 114.754 114.75 114.754 114.75C114.051 114.764 113.676 104.588 117.363 95.0049C121.05 85.4217 126.912 80.4078 130.574 79.2643C133.268 78.5295 136.029 78.0681 138.816 77.8871C138.816 77.8871 127.03 86.2003 121.972 97.5555ZM135.322 36.0995C139.464 35.5347 143.661 35.5061 147.81 36.0143C153.955 36.5926 155.009 35.8679 155.059 38.3424C155.109 40.8169 156.407 53.4212 143.233 52.9859C142.124 52.9865 141.027 52.7687 140.003 52.345C138.978 51.9213 138.048 51.3 137.264 50.5166C136.48 49.7332 135.858 48.803 135.434 47.7791C135.009 46.7553 134.791 45.6578 134.791 44.5495C134.701 40.1629 134.261 36.4867 135.322 36.0995ZM77.153 14.2433C82.7244 13.3455 88.3661 12.9577 94.0079 13.0847C101.605 13.1834 106.774 12.8251 107.381 13.6286C107.788 15.8963 107.672 18.2271 107.042 20.4431C106.85 20.7283 100.112 19.9933 92.3845 20.4036C87.6067 20.93 82.8055 21.2154 77.999 21.2588C77.3591 18.9774 77.0738 16.6113 77.153 14.2433ZM34.0357 35.3462C37.7341 34.2711 41.5767 33.7755 45.4269 33.8768C51.0473 33.5937 53.8627 33.7052 54.282 36.341C54.7013 38.9768 54.7114 49.1599 44.0123 50.0808C35.4182 50.7619 32.4787 36.2499 34.0357 35.3462ZM19.7466 42.3319L27.9994 41.4608C28.5403 45.2581 30.4629 48.7224 33.399 51.1905C36.3351 53.6585 40.0784 54.9569 43.9121 54.8369C58.176 54.9125 59.7731 38.0016 59.7731 38.0016C59.7731 38.0016 66.0639 36.1014 65.7516 37.3455C65.4394 38.5896 67.4737 79.141 69.7399 86.8309C72.0061 94.5208 76.6364 96.7334 78.5553 97.0319C80.4743 97.3304 81.6505 92.9181 81.2746 92.4194C80.8988 91.9207 75.8476 92.5298 74.4463 76.1861C73.0449 59.8425 69.7979 28.824 71.7096 27.3786C73.6212 25.9332 85.1743 24.1229 97.1392 24.5828C109.104 25.0428 112.791 25.1365 114.261 28.2573C115.731 31.3781 112.626 77.8852 111.18 84.244C109.734 90.6029 107.109 91.5283 105.011 92.1055C104.652 92.1815 104.313 92.3339 104.018 92.5522C103.723 92.7705 103.479 93.0497 103.301 93.3708C103.124 93.6919 103.017 94.0474 102.989 94.4132C102.961 94.7791 103.012 95.1467 103.138 95.4911C103.522 96.3554 106.506 96.4635 109.303 95.7033C112.101 94.9432 116.771 90.7974 117.855 74.9658C118.94 59.1342 119.784 39.763 120.29 39.7527C120.796 39.7425 129.64 40.2659 129.64 40.2659C129.64 40.2659 128.38 57.17 142.82 57.5796C157.259 57.9892 158.619 47.4125 158.619 47.4125C158.619 47.4125 162.31 47.675 162.166 48.9157C162.023 50.1563 160.375 64.5928 150.788 69.0074C141.201 73.422 126.994 74.7799 120.642 81.9418C114.289 89.1037 110.766 106.757 110.22 114.504C109.675 122.251 110.742 140.149 107.585 149.553C104.429 158.956 102.354 168.957 89.1666 169.253C68.1335 169.681 67.2042 92.1711 57.6028 86.2057C52.9566 83.0275 47.7857 80.6947 42.3283 79.3148C34.6391 74.843 28.401 68.2505 24.3603 60.3262C18.824 48.1457 19.7466 42.3319 19.7466 42.3319Z" fill="#1D1D1B"/>
</svg>
